<svg width="300" height="300" viewBox="0 0 300 300" fill="none" xmlns="http://www.w3.org/2000/svg">
<rect width="300" height="300" rx="36" fill="#374741"/>
<path fill-rule="evenodd" clip-rule="evenodd" d="M78.5904 148.214C78.5511 147.822 74.5235 133.003 73.8604 129.181C70.6313 110.556 69.1149 93.0609 70.1045 74.0304C70.214 71.92 70.3183 64.1769 70.7428 62.7131C71.8791 62.2111 78.0697 61.2566 79.7958 60.9385C97.6457 57.6443 130.771 51.4382 147.771 52.3038L147.987 52.1933L147.874 25.0105C129.366 24.8143 111.53 27.3874 94.1511 30.3087C81.9796 32.354 69.1676 34.7928 57.1293 37.2833L44.8079 39.7707C44.0879 45.2558 43.5756 61.173 43.3163 67.5423C42.6118 84.9035 43.0074 106.364 45.2841 123.557C45.7469 127.05 48.821 146.324 50.0451 148.104L78.5883 148.216L78.5904 148.214Z" fill="#008B5E"/>
<path fill-rule="evenodd" clip-rule="evenodd" d="M147.839 239.573L148.059 239.046C147.761 237.499 147.919 225.537 147.921 222.965C147.927 217.486 147.912 212.008 147.928 206.529C147.939 202.319 147.998 203.382 145.315 200.942C139.454 195.613 134.372 190.31 129.434 184.156C128.257 182.688 127.063 181.199 125.862 179.616C123.051 175.909 118.439 168.894 116.204 164.731L110.629 153.872C110.175 152.931 109.778 152.045 109.364 151.067C108.975 150.15 108.512 148.799 108.107 148.116L78.6585 148.159C79.0066 150.214 80.4115 153.551 81.1387 155.551C82.027 157.992 83.0197 160.389 84.0486 162.781C87.0008 169.642 90.4282 176.275 94.2688 182.595C97.2851 187.557 99.1848 190.041 102.374 194.579C108.184 202.847 118.816 214.11 126.389 220.892L142.417 234.884C143.311 235.662 144.19 236.473 145.135 237.245C145.872 237.847 147.26 238.84 147.84 239.572L147.839 239.573Z" fill="#D2BA93"/>
<path fill-rule="evenodd" clip-rule="evenodd" d="M148.059 239.047L147.839 239.574L147.813 275C149.111 274.935 150.657 273.191 151.915 272.083C156.662 267.898 162.393 263.198 166.902 259.063C168.119 257.946 169.32 256.983 170.719 255.787C177.685 249.836 186.471 242.346 192.954 236.008C202.125 227.045 206.798 222.153 214.626 212.032C217.798 207.93 220.791 203.631 223.621 199.328L224.028 198.712C227.006 194.155 232.377 184.236 234.546 179.387C236.826 174.288 238.734 169.833 240.684 164.632C241.854 161.509 245.613 149.506 245.484 148.097L217.199 148.062L216.851 148.113C216.687 149.256 216.012 150.857 215.645 152.014L214.319 155.745C213.82 156.811 213.333 158.201 212.926 159.442C212.552 160.579 211.95 161.618 211.466 162.805C208.56 169.951 205.048 176.018 201.248 182.607C199.339 185.915 197.341 188.595 195.278 191.666C194.584 192.699 194.003 193.392 193.235 194.522L186.573 202.84C186.186 203.32 185.804 203.757 185.355 204.266L174.548 215.777C172.902 217.277 171.397 218.904 169.421 220.596L164.136 225.257C162.36 226.824 160.707 228.251 158.813 229.87C158.011 230.556 148.805 238.708 148.06 239.049L148.059 239.047Z" fill="#008B5E"/>
<path d="M87.5369 224.4C95.5079 224.4 101.97 217.938 101.97 209.967C101.97 201.996 95.5079 195.534 87.5369 195.534C79.5659 195.534 73.1042 201.996 73.1042 209.967C73.1042 217.938 79.5659 224.4 87.5369 224.4Z" fill="#D2BA93"/>
<path d="M242.462 62.6428C250.433 62.6428 256.894 56.1811 256.894 48.2101C256.894 40.2391 250.433 33.7773 242.462 33.7773C234.491 33.7773 228.029 40.2391 228.029 48.2101C228.029 56.1811 234.491 62.6428 242.462 62.6428Z" fill="#D2BA93"/>
<path d="M173.967 192.193C181.938 192.193 188.4 185.731 188.4 177.76C188.4 169.789 181.938 163.327 173.967 163.327C165.996 163.327 159.534 169.789 159.534 177.76C159.534 185.731 165.996 192.193 173.967 192.193Z" fill="#008B5E"/>
<path d="M98.2375 101.912C106.209 101.912 112.67 95.4507 112.67 87.4797C112.67 79.5088 106.209 73.047 98.2375 73.047C90.2666 73.047 83.8048 79.5088 83.8048 87.4797C83.8048 95.4507 90.2666 101.912 98.2375 101.912Z" fill="#008B5E"/>
<path fill-rule="evenodd" clip-rule="evenodd" d="M216.85 148.111L217.198 148.06L219.705 138.771C222.151 129.28 224.089 118.206 224.846 108.334C225.91 94.4564 226.266 79.532 225.202 65.4887L224.909 62.6945C223.684 61.7916 192.32 56.5875 188.115 55.8841C181.619 54.7984 175.335 54.097 168.787 53.315C164.914 52.8523 151.454 51.874 147.988 52.1943L147.772 52.3048L147.8 79.6394C163.319 80.2644 172.125 80.7302 187.099 83.3044C191.063 83.9862 195.317 84.6545 199.199 85.5821C199.866 90.2005 198.991 98.4034 198.643 103.154C198.256 108.429 197.28 114.395 196.241 119.395C194.866 126.014 192.548 134.883 190.196 141.141C189.557 142.841 187.956 146.595 187.74 148.169L216.849 148.113L216.85 148.111Z" fill="#D2BA93"/>
<path fill-rule="evenodd" clip-rule="evenodd" d="M178.724 54.5175C178.378 54.8966 178.013 55.2509 177.634 55.5752C169.654 62.3794 154.83 62.7028 149.681 74.2659C148.835 76.1655 148.443 77.9856 148.416 79.6632C149.666 79.7138 150.873 79.7634 152.042 79.814C152.251 74.3113 157.221 69.8685 160.37 67.9957C166.155 64.5569 176.205 62.2451 180.451 58.1825C181.547 57.1329 182.49 56.29 183.323 55.1414C181.787 54.9203 180.256 54.7148 178.724 54.5185V54.5175ZM165.709 80.5815C165.616 80.1508 165.462 79.7345 165.235 79.3419C163.904 77.0446 160.034 75.962 158.087 78.5734C157.754 79.0196 157.532 79.5341 157.414 80.0619C160.318 80.2096 163.037 80.3739 165.709 80.5805V80.5815Z" fill="#E9DDCA"/>
<path fill-rule="evenodd" clip-rule="evenodd" d="M212.338 72.9178C209.396 73.4457 208.525 67.4668 211.5 64.6406C214.537 61.7565 219.178 63.4269 220.739 65.843C225.936 73.8909 220.449 87.4456 209.978 91.4153C206.574 92.7055 202.678 93.3015 199.406 91.9256C199.382 92.688 199.347 93.4637 199.305 94.2416C200.523 94.6351 201.849 94.8851 203.272 94.9615C214.016 95.5359 223.297 86.8816 225.776 77.4268C225.694 73.8021 225.534 70.2001 225.285 66.6508C224.17 64.1448 222.261 62.4104 220.022 61.5055C218.898 61.2803 217.627 61.0345 216.251 60.7773C214.503 60.7721 212.712 61.2018 211.046 62.0891C205.356 65.1199 203.794 75.9445 211.529 76.5116C214.886 76.7574 219.063 73.6967 217.616 70.4872C217.126 69.3985 215.649 68.0515 213.822 68.7529C211.617 69.5999 212.19 71.3188 212.337 72.9199L212.338 72.9178ZM193.887 84.4789C193.644 82.3179 194.226 80.254 195.641 79.0372C196.56 78.2459 199.505 76.7874 200.621 78.0321C200.236 78.3399 200.536 78.2211 199.338 78.2501C198.777 78.2635 198.614 78.1881 198.114 78.5186C196.356 79.6838 196.808 83.8033 200.62 82.8788C204.105 82.0328 204.746 77.3224 202.719 75.1098C199.801 71.9241 193.737 73.4539 191.438 78.8533C190.735 80.5019 190.478 82.2239 190.613 83.9015C191.702 84.0874 192.797 84.2785 193.887 84.4789Z" fill="#E9DDCA"/>
<path fill-rule="evenodd" clip-rule="evenodd" d="M155.064 77.8513C156.002 76.9816 157.177 75.4404 158.456 74.394C171.054 64.0776 182.514 71.8652 183.328 82.6784C184.188 82.8158 185.067 82.9594 185.967 83.1102C184.753 68.7136 170.091 62.1997 159.358 71.7082C158.217 72.7185 155.666 75.7255 155.064 77.8524V77.8513Z" fill="#E9DDCA"/>
<path fill-rule="evenodd" clip-rule="evenodd" d="M210.186 61.2008L212.63 60.1079C211.223 59.8528 209.763 59.5914 208.284 59.3301C208.935 60.1317 209.587 60.7804 210.186 61.2018V61.2008Z" fill="#E9DDCA"/>
<path fill-rule="evenodd" clip-rule="evenodd" d="M197.144 61.3589C197.9 58.2631 202.122 58.6329 203.363 61.612C204.651 64.7047 201.914 67.7995 199.1 67.8573C193.991 67.9637 193.234 59.4376 186.501 59.3229C183.28 59.2681 180.76 61.3661 179.848 63.9382C178.732 67.0826 180.639 70.0297 183.139 70.5927C186.113 71.2641 189.406 68.5339 189.158 65.6003C188.804 61.4147 183.054 63.1377 184.727 66.154C186.66 66.219 185.107 65.2336 186.686 64.8917C187.983 66.3502 186.059 68.4534 184.303 68.3831C180.58 68.2333 181.069 61.8547 185.884 61.6698C189.15 61.5448 190.947 65.0848 192.926 67.3698C197.764 72.952 203.381 70.3158 205.535 66.3977C207.114 63.525 206.321 60.5914 204.9 58.7331C202.026 58.2321 199.199 57.7486 196.689 57.322C195.819 57.8829 195.097 58.6566 194.628 59.5853C192.82 63.1687 195.926 67.5578 199.592 65.9143C203.948 63.961 200.826 57.7352 197.143 61.3568L197.144 61.3589Z" fill="#E9DDCA"/>
<path fill-rule="evenodd" clip-rule="evenodd" d="M172.847 53.7965C168.645 56.4368 162.84 57.4026 157.774 55.3996C155.839 54.6342 154.228 53.5145 152.95 52.1933C151.723 52.1489 150.611 52.1251 149.697 52.1292C153.144 56.6764 159.222 59.5501 166.964 57.7259C170.148 56.976 172.84 55.6548 174.893 54.0403L172.847 53.7954V53.7965Z" fill="#E9DDCA"/>
<path fill-rule="evenodd" clip-rule="evenodd" d="M147.794 72.6575C148.968 70.4232 150.415 68.6237 152.183 66.6611C155.508 62.9723 159.154 61.9682 161.223 60.521C159.262 59.7938 151.936 60.2938 147.776 55.1713L147.794 72.6564V72.6575Z" fill="#E9DDCA"/>
<path fill-rule="evenodd" clip-rule="evenodd" d="M198.838 100.676C199.26 100.65 199.72 100.597 200.229 100.513C202.646 100.109 205.456 98.7897 206.847 97.5027C203.91 97.7206 201.364 97.7093 199.11 97.2372C199.021 98.4354 198.926 99.5975 198.838 100.675V100.676Z" fill="#E9DDCA"/>
<path fill-rule="evenodd" clip-rule="evenodd" d="M206.677 77.7522C206.337 79.6498 206.398 82.0452 203.95 84.1742C202.78 85.1917 201.15 85.9323 199.265 86.0924C199.36 86.9198 199.412 87.8444 199.432 88.8298C200.234 89.244 201.187 89.4899 202.241 89.4744C205.365 89.43 206.212 87.646 207.599 85.7422C208.885 86.8971 207.069 88.3898 212.089 88.3433C213.302 86.1689 213.384 85.4778 212.835 82.9542C215.663 83.1175 217.023 81.6083 218.199 79.94C219.459 78.1519 220.409 75.6552 220.399 73.1523C218.981 75.0974 218.343 76.9764 214.881 78.3968C212.245 79.4783 208.325 79.2252 206.677 77.7532V77.7522Z" fill="#E9DDCA"/>
<path fill-rule="evenodd" clip-rule="evenodd" d="M169.674 74.5602C168.41 73.6646 167.886 72.9291 165.809 72.9952C164.315 73.0428 162.196 73.8846 162.145 74.9816C166.679 75.3246 168.589 76.8555 168.04 80.7725C169.003 80.8562 169.964 80.9481 170.932 81.0463C174.705 79.5422 176.93 80.7012 178.263 81.9253C178.937 82.0183 179.622 82.1154 180.316 82.2176C180.897 78.8698 179.367 76.2233 175.541 76.5921C175.888 74.5488 174.709 73.4497 174.207 71.8755C170.243 72.7246 170.321 73.8919 169.674 74.5602Z" fill="#E9DDCA"/>
<path fill-rule="evenodd" clip-rule="evenodd" d="M182.637 58.9241C186.235 59.2051 187.305 57.4645 188.247 55.9047L188.115 55.882C187.161 55.7229 186.213 55.5721 185.267 55.4275C185.112 55.6899 184.948 55.9553 184.771 56.2249C184.041 57.3406 183.32 57.9242 182.636 58.9231L182.637 58.9241ZM189.138 56.0545C189.629 57.4614 190.265 59.7928 191.716 60.0201C192.433 59.2433 192.627 57.9232 192.65 56.6423L189.138 56.0545Z" fill="#E9DDCA"/>
<path fill-rule="evenodd" clip-rule="evenodd" d="M187.833 72.7774C185.505 71.9882 186.065 71.0977 181.54 71.3467C181.809 71.8074 183.887 72.7701 185.839 75.3061C187.756 77.7966 187.589 79.5712 188.337 81.2674L188.524 80.9647C189.66 78.8533 190.792 75.5871 194.025 73.8424C195.098 73.2639 196.426 73.1926 197.235 72.7918C195.211 71.7268 194.389 71.6628 192.394 72.703C191.891 72.0853 191.327 70.3798 189.654 70.0255C188.87 70.6794 188.23 71.8053 187.833 72.7763V72.7774Z" fill="#E9DDCA"/>
<path fill-rule="evenodd" clip-rule="evenodd" d="M161.385 53.908C161.157 53.5548 160.697 53.2604 160.124 52.5817C159.242 52.5218 158.346 52.465 157.459 52.4133C158.663 53.0786 160.114 53.6529 161.384 53.908H161.385Z" fill="#E9DDCA"/>
<path fill-rule="evenodd" clip-rule="evenodd" d="M218.628 66.1612C217.373 65.0125 215.75 65.5424 216.091 67.1931C216.345 68.4234 218.723 68.7581 218.628 66.1612Z" fill="#E9DDCA"/>
<path fill-rule="evenodd" clip-rule="evenodd" d="M220.605 115.711C217.751 114.392 216.25 113.734 212.003 115.182C202.321 118.484 198.677 131.923 206.803 134.465C212.486 136.242 221.088 130.206 218.203 124.35C215.58 119.022 208.463 123.325 210.389 127.519C211.374 129.666 212.683 128.623 213.809 129.34C212.805 131.922 208.769 133.087 206.615 130.879C201.661 125.802 210.46 113.64 220.543 119.2C221.367 119.655 221.404 119.842 222.097 120.431C222.535 120.804 222.918 121.205 223.25 121.63C223.552 119.737 223.824 117.846 224.062 115.97C221.852 112.197 219.942 108.236 221.137 102.858C221.884 99.4942 223.576 96.73 225.628 94.7488C225.692 93.0247 225.744 91.2945 225.78 89.5612C223.356 91.0053 221.137 93.2169 219.524 96.1484C217.873 99.1523 216.809 102.896 217.148 106.805C217.576 111.731 219.306 112.811 220.606 115.713L220.605 115.711ZM220.083 137.277C215.247 141.535 208.087 144.038 202.427 148.139L208.591 148.127C211.781 146.321 215.48 144.582 218.636 142.732L219.705 138.77C219.832 138.276 219.958 137.778 220.082 137.276L220.083 137.277Z" fill="#E9DDCA"/>
<path fill-rule="evenodd" clip-rule="evenodd" d="M208.968 101.973C207.723 101.835 204.905 100.578 203.393 101.629C202.214 103.177 203.062 106.011 203.672 107.194C201.302 108.346 200.775 108.373 199.357 109.999C199.962 111.673 201.724 112.481 204.153 112.685C203.539 114.407 203.271 114.74 203.929 116.534C205.497 116.006 208.678 112.333 212.838 111.719C214.105 111.534 215.757 112.088 216.514 111.831C216.34 110.724 212.062 105.116 216.588 96.4975C217.197 95.3354 218.836 93.8686 216.873 93.9709C213.13 94.1651 209.376 97.3508 208.968 101.974V101.973Z" fill="#E9DDCA"/>
<path fill-rule="evenodd" clip-rule="evenodd" d="M220.719 122.707C224.371 131.752 211.82 141.122 201.314 138.258C197.44 137.202 194.677 134.687 193.192 131.818C192.883 132.912 192.566 133.997 192.241 135.055C195.942 139.724 202.582 142.392 210.688 139.546C214.799 138.104 217.977 135.777 219.944 133.228C220.668 132.29 221.275 131.238 221.696 130.143C221.914 129.084 222.123 128.017 222.326 126.944C222.322 125.428 221.847 123.956 220.719 122.706V122.707ZM196.504 118.102C196.9 117.907 197.348 117.851 197.847 118.028C197.715 118.332 196.984 118.599 196.305 119.082L196.241 119.392C196.012 120.496 195.756 121.662 195.479 122.868C196.226 124.218 198.276 124.9 200.275 123.769C203.798 121.776 203.206 116.14 198.8 115.283C198.197 115.167 197.614 115.14 197.054 115.188C196.876 116.181 196.692 117.156 196.504 118.103V118.102Z" fill="#E9DDCA"/>
<path fill-rule="evenodd" clip-rule="evenodd" d="M190.379 142.666C189.945 143.144 189.5 143.552 189.086 143.977C188.476 145.554 187.867 147.239 187.741 148.168L198.254 148.147C200.854 145.516 203.561 144.324 205.171 142.953C203.11 142.438 195.563 143.811 191.018 138.846C190.746 139.641 190.472 140.408 190.196 141.14C190.103 141.388 189.99 141.681 189.862 142.004C190.044 142.186 190.22 142.399 190.379 142.666Z" fill="#E9DDCA"/>
<path fill-rule="evenodd" clip-rule="evenodd" d="M224.72 109.878C224.268 110.365 223.963 110.961 223.837 111.815C224.086 112.048 224.296 112.208 224.486 112.319C224.572 111.498 224.65 110.684 224.72 109.878Z" fill="#E9DDCA"/>
<path fill-rule="evenodd" clip-rule="evenodd" d="M223.333 105.217C223.964 104.005 224.582 102.914 225.28 101.938C225.349 100.773 225.411 99.6027 225.469 98.4282C223.805 101.094 223.103 104.081 223.333 105.217Z" fill="#E9DDCA"/>
<path fill-rule="evenodd" clip-rule="evenodd" d="M204.807 136.38C204.275 135.706 202.762 135.393 201.021 131.386C200.473 130.127 198.869 125.123 196.583 127.861C195.018 129.735 197.008 132.683 198.596 134.086C199.77 135.124 202.591 136.187 204.807 136.38Z" fill="#E9DDCA"/>
<path fill-rule="evenodd" clip-rule="evenodd" d="M160.011 174.072C162.839 174.211 165.96 171.833 164.653 169.03C164.367 168.418 163.98 168.007 163.556 167.765C162.617 168.742 161.815 169.852 161.18 171.062C161.552 171.227 161.947 171.162 162.308 171.432C162.023 172.133 161.28 172.569 160.474 172.628C160.296 173.098 160.141 173.579 160.011 174.071V174.072ZM165.422 166.127C165.581 166.216 165.74 166.313 165.901 166.42C166.341 166.711 166.36 166.813 166.729 167.169C169.312 169.654 168.359 173.611 166.245 175.546C164.512 177.131 162.032 178.057 159.598 179.11C159.657 179.746 159.756 180.372 159.897 180.982C162.759 179.72 166.249 178.605 167.86 176.936C168.75 176.014 169.442 175.39 169.942 173.844C171.109 170.233 169.235 167.574 167.698 164.756C166.895 165.143 166.135 165.604 165.423 166.126L165.422 166.127Z" fill="#80C6AF"/>
<path fill-rule="evenodd" clip-rule="evenodd" d="M185.498 184.799C183.952 185.081 183.232 181.892 184.7 180.383C185.679 179.377 187.107 179.409 188.24 179.913C188.31 179.442 188.359 178.964 188.382 178.48C187.044 178.155 185.604 178.324 184.35 179.021C181.443 180.639 181.069 186.414 185.22 186.717L185.282 186.721C186.223 185.534 186.982 184.196 187.515 182.75C187.127 182.498 186.637 182.371 186.115 182.577C184.973 183.029 185.353 183.946 185.499 184.8L185.498 184.799ZM176.449 191.979C175.834 190.495 175.94 188.902 176.848 188.065C177.306 187.642 178.814 186.863 179.463 187.528C179.269 187.692 179.425 187.629 178.787 187.644C178.488 187.651 178.398 187.611 178.145 187.788C177.256 188.41 177.673 190.608 179.667 190.114C181.491 189.663 181.633 187.149 180.457 185.969C178.765 184.27 175.595 185.086 174.597 187.965C174.118 189.35 174.232 190.83 174.82 192.166C175.372 192.133 175.915 192.071 176.448 191.979H176.449Z" fill="#80C6AF"/>
<path fill-rule="evenodd" clip-rule="evenodd" d="M160.657 183.348C166.122 181.672 170.774 186.401 170.529 191.778C171.014 191.897 171.508 191.99 172.01 192.058C172.013 191.637 171.989 191.201 171.934 190.747C171.13 184.116 165.309 180.409 160.241 182.23C160.365 182.61 160.503 182.983 160.656 183.347L160.657 183.348ZM168.153 190.972C168.042 190.851 167.918 190.744 167.781 190.653C167.427 190.422 167.018 190.26 166.584 190.162C167.088 190.462 167.611 190.733 168.152 190.971L168.153 190.972Z" fill="#80C6AF"/>
<path fill-rule="evenodd" clip-rule="evenodd" d="M188.25 175.679C187.552 175.993 187.033 176.541 186.923 177.396C186.996 177.413 187.585 177.328 188.395 177.372C188.379 176.799 188.33 176.234 188.25 175.678V175.679Z" fill="#80C6AF"/>
<path fill-rule="evenodd" clip-rule="evenodd" d="M183.852 178.548L185.288 177.882C183.066 175.836 181.389 174.17 180.922 170.545C180.716 168.935 180.945 167.094 181.517 165.458C181.151 165.233 180.775 165.024 180.389 164.832C180.296 165.075 180.21 165.324 180.133 165.578C179.349 168.175 179.404 170.698 180.229 173.245C180.899 175.314 182.628 177.734 183.852 178.548Z" fill="#80C6AF"/>
<path fill-rule="evenodd" clip-rule="evenodd" d="M176.9 178.633C177.171 176.981 179.44 177.177 180.228 178.767C181.046 180.418 179.719 182.068 178.219 182.099C175.497 182.156 174.73 177.607 171.134 177.546C169.413 177.517 168.157 178.636 167.78 180.009C167.318 181.686 168.46 183.258 169.819 183.56C171.434 183.917 173.075 182.461 172.818 180.896C172.452 178.664 169.457 179.582 170.478 181.191C171.512 181.226 170.641 180.701 171.47 180.518C172.224 181.296 171.287 182.418 170.347 182.38C168.354 182.3 168.344 178.897 170.904 178.799C172.642 178.733 173.751 180.621 174.904 181.84C177.722 184.818 180.607 183.412 181.59 181.321C182.526 179.33 181.322 177.284 180.122 176.511C178.32 175.351 176.16 176.087 175.481 177.686C174.67 179.6 176.512 181.94 178.399 181.063C180.64 180.021 178.709 176.699 176.899 178.632L176.9 178.633Z" fill="#80C6AF"/>
<path fill-rule="evenodd" clip-rule="evenodd" d="M165.994 168.303C167.484 172.161 163.914 175.56 159.643 175.98C159.606 176.283 159.579 176.589 159.56 176.897C159.914 176.849 160.276 176.782 160.642 176.694C162.835 176.167 164.531 175.113 165.58 173.871C166.861 172.352 167.46 170.092 165.994 168.303Z" fill="#80C6AF"/>
<path fill-rule="evenodd" clip-rule="evenodd" d="M177.07 170.419C176.821 171.052 175.691 170.821 175.091 170.626C172.951 169.928 172.731 167.597 173.539 165.731C173.92 164.854 174.472 164.108 175.038 163.366C174.685 163.34 174.327 163.327 173.966 163.327C173.584 163.327 173.205 163.341 172.83 163.371C171.225 166.301 171.356 170.44 173.46 171.918C176.402 173.984 179.376 171.161 178.545 168.75C177.636 166.11 173.931 168.366 175.379 170.11C176.028 170.89 176.612 170.163 177.069 170.419H177.07Z" fill="#80C6AF"/>
<path fill-rule="evenodd" clip-rule="evenodd" d="M182.683 187.379C182.62 188.01 182.649 188.744 182.385 189.483C183.012 189.032 183.602 188.532 184.148 187.988C183.562 187.881 183.04 187.676 182.683 187.379Z" fill="#80C6AF"/>
<path fill-rule="evenodd" clip-rule="evenodd" d="M162.804 185.676C162.284 185.327 161.978 185.025 161.422 184.9C162.278 186.403 163.398 187.735 164.717 188.837C167.262 188.324 168.315 190.432 168.667 190.548C169.219 188.413 168.336 186.535 166.02 186.759C166.119 185.669 165.443 185.082 165.108 184.243C163.03 184.695 163.121 185.319 162.804 185.675V185.676Z" fill="#80C6AF"/>
<path fill-rule="evenodd" clip-rule="evenodd" d="M169.056 177.333C171.316 177.509 171.613 176.207 172.146 175.311C172.499 175.734 172.935 177.761 173.947 177.918C174.533 177.223 174.271 175.715 174.157 174.855C175.462 175.264 175.76 175.56 177.164 174.871C178.005 174.459 178.674 173.761 179.072 173.069C177.071 174.176 174.25 173.726 172.44 171.925C172.183 171.67 171.994 171.43 171.717 171.072L171.08 170.211C171.066 170.196 171.039 170.167 171.018 170.146C171.236 172.353 171.203 173.943 170.081 175.893C169.738 176.488 169.38 176.8 169.056 177.333Z" fill="#80C6AF"/>
<path fill-rule="evenodd" clip-rule="evenodd" d="M187.356 174.252C184.258 175.119 183.147 171.706 185.413 170.407C185.662 170.264 185.924 170.166 186.197 170.096C185.914 169.646 185.609 169.213 185.279 168.798C184.212 169.287 183.511 170.352 183.23 171.502C182.761 173.424 183.934 175.382 185.657 175.496C186.709 175.567 187.58 175.093 188.012 174.43C187.801 173.537 187.507 172.674 187.138 171.852C185.913 171.438 184.808 173.195 185.94 173.956C186.142 174.092 186.303 174.127 186.555 174.146C186.751 174.162 187.163 174.115 187.356 174.251V174.252Z" fill="#80C6AF"/>
<path fill-rule="evenodd" clip-rule="evenodd" d="M168.922 164.234C168.846 165.386 169.433 166.208 170.298 166.312C170.554 165.308 170.469 164.567 170.999 163.633C170.286 163.783 169.592 163.984 168.922 164.234Z" fill="#80C6AF"/>
<path fill-rule="evenodd" clip-rule="evenodd" d="M172.417 184.725C171.141 184.305 171.402 183.83 168.998 183.963C169.162 184.209 170.311 184.722 171.46 186.075C172.589 187.404 172.575 188.351 173.046 189.257L173.132 189.096C173.649 187.969 174.115 186.227 175.765 185.295C176.313 184.986 177.018 184.948 177.433 184.734C176.308 184.166 175.867 184.132 174.846 184.687C174.552 184.357 174.179 183.447 173.271 183.258C172.88 183.607 172.587 184.209 172.417 184.726V184.725Z" fill="#80C6AF"/>
<path fill-rule="evenodd" clip-rule="evenodd" d="M174.337 167.891C175.442 165.46 178.612 167.187 179.341 166.023C179.734 165.394 179.449 164.648 179.089 164.263C178.487 164.035 177.868 163.845 177.23 163.697C175.631 164.074 174.147 166.281 174.337 167.891Z" fill="#80C6AF"/>
<path fill-rule="evenodd" clip-rule="evenodd" d="M183.851 167.243C182.655 167.431 181.702 168.58 182.044 169.19C182.568 170.126 183.606 168.897 184.622 168.024C184.375 167.754 184.118 167.494 183.852 167.243H183.851Z" fill="#80C6AF"/>
<path fill-rule="evenodd" clip-rule="evenodd" d="M188.055 180.907C187.513 180.749 187.065 181.073 187.258 181.746C187.319 181.96 187.498 182.124 187.704 182.199C187.84 181.776 187.958 181.346 188.055 180.908V180.907Z" fill="#80C6AF"/>
<path fill-rule="evenodd" clip-rule="evenodd" d="M220.809 148.064C224.671 150.108 229.805 150.327 233.022 148.079L220.809 148.064ZM242.406 148.091C240.748 153.682 234.697 157.567 229.122 158.141C224.335 158.633 219.224 157.597 214 156.469C213.615 157.399 213.245 158.466 212.925 159.44C212.804 159.807 212.66 160.163 212.503 160.518C218.894 161.985 225.512 163.656 230.19 162.902C233.325 162.395 235.622 162.173 238.932 159.983C240.955 158.646 242.469 157.146 243.627 155.532C244.672 152.036 245.547 148.787 245.484 148.096L242.407 148.092L242.406 148.091Z" fill="#80C6AF"/>
<path fill-rule="evenodd" clip-rule="evenodd" d="M228.211 191.661C227.729 191.885 227.251 192.145 226.779 192.445C222.686 195.037 220.457 199.421 220.41 204.097C221.503 202.514 222.574 200.921 223.621 199.327L224.028 198.711C225.174 196.957 226.675 194.408 228.211 191.662V191.661Z" fill="#80C6AF"/>
<path fill-rule="evenodd" clip-rule="evenodd" d="M209.854 166.534C220.021 172.171 220.85 185.532 212.839 194.254C205.484 202.263 195.667 201.547 192.261 195.735L189.607 199.048C195.319 205.844 209.632 206.288 217.363 194.001C224.9 182.026 221.019 168.963 211.026 163.864C210.645 164.77 210.254 165.658 209.853 166.534H209.854ZM200.062 184.568C207.053 185.502 207.067 192.645 203.494 192.865C203.309 191.385 204.906 190.014 202.609 188.884C201.166 188.173 199.246 188.969 198.509 190.71C197.03 194.203 201.214 196.502 204.73 195.518C208.37 194.498 210.395 190.946 209.36 188.212C208.243 185.265 204.869 182.88 201.521 182.13L201.247 182.605C200.856 183.284 200.461 183.935 200.063 184.569L200.062 184.568Z" fill="#80C6AF"/>
<path fill-rule="evenodd" clip-rule="evenodd" d="M238.142 171.074C237.567 170.119 236.781 169.234 235.695 168.457C232.364 166.078 228.216 166.454 225.407 168.488C221.974 170.973 221.844 175.43 224.052 177.823C226.68 180.67 232.093 180.186 233.948 176.941C236.595 172.308 229.34 169.964 228.914 174.325C230.889 175.788 229.975 173.636 231.875 174.418C232.179 176.878 228.65 177.693 226.864 176.352C223.078 173.511 228.188 167.191 233.357 170.469C235.193 171.633 235.883 173.558 236.185 175.676C236.861 174.127 237.509 172.608 238.143 171.074H238.142Z" fill="#80C6AF"/>
<path fill-rule="evenodd" clip-rule="evenodd" d="M237.588 148.085C233.114 153.674 223.717 154.215 216.209 150.386C216.006 150.961 215.797 151.525 215.644 152.012L215.528 152.338C215.817 152.462 216.11 152.584 216.41 152.701C221.503 154.688 226.416 155.028 230.348 154.142C233.913 153.338 237.355 151.268 238.818 148.088L237.589 148.085H237.588Z" fill="#80C6AF"/>
<path fill-rule="evenodd" clip-rule="evenodd" d="M197.23 206.942C197.714 209.629 204.141 212.645 208.635 210.605C208.706 211.622 207.319 213.804 209.33 216.099C210.124 216.122 210.966 215.956 211.79 215.64C212.695 214.508 213.635 213.311 214.626 212.03C215.509 210.888 216.378 209.732 217.233 208.564C217.069 207.555 216.976 206.482 216.96 205.332C216.943 204.248 217.439 199.484 217.921 198.639C213.89 202.54 212.993 203.823 207.954 205.686C203.82 207.215 201.502 207.026 197.23 206.941V206.942Z" fill="#80C6AF"/>
<path fill-rule="evenodd" clip-rule="evenodd" d="M207.107 172.263L207.077 172.181C205.738 174.738 204.327 177.244 202.865 179.795C203.021 179.812 203.171 179.834 203.315 179.863C212.197 181.647 210.672 188.429 211.258 189.214C215.558 186.003 216.658 181.331 211.779 178.619C213.616 176.732 213.174 174.731 213.784 172.723C209.026 170.753 208.265 172.031 207.107 172.264V172.263Z" fill="#80C6AF"/>
<path fill-rule="evenodd" clip-rule="evenodd" d="M231.941 165.253C235.585 168.21 237.988 167.042 240.135 166.073C240.318 165.597 240.5 165.117 240.682 164.631C241.021 163.725 241.579 162.073 242.195 160.15C240.578 161.679 238.681 162.924 236.119 163.971C234.55 164.61 233.377 164.701 231.94 165.252L231.941 165.253Z" fill="#80C6AF"/>
<path fill-rule="evenodd" clip-rule="evenodd" d="M227.389 183.491C225.522 180.987 226.75 180.459 221.836 177.457C221.787 178.133 223.266 180.639 223.48 184.698C223.689 188.685 222.235 190.421 221.794 192.735L222.207 192.554C224.176 191.545 226.584 189.897 229.532 189.265C230.483 187.516 231.413 185.756 232.245 184.127C232.161 183.374 231.911 182.595 231.277 181.926C229.985 182.046 228.504 182.761 227.389 183.491Z" fill="#80C6AF"/>
<path fill-rule="evenodd" clip-rule="evenodd" d="M190.98 236.003C191.924 235.765 192.742 235.563 193.525 235.447L192.954 236.006C188.999 239.873 184.186 244.168 179.453 248.281C180.985 237.709 193.44 234.358 193.043 221.918C192.791 214.034 187.616 208.104 182.804 206.979L185.355 204.264C185.566 204.023 185.764 203.8 185.953 203.58C190.278 205.235 194.298 209.221 196.174 214.957C197.353 218.561 197.742 222.85 196.57 227.029C195.092 232.296 192.989 233.115 190.981 236.002L190.98 236.003ZM174.887 215.412C174.951 215.888 175.103 216.287 175.368 216.562C176.039 216.084 176.454 213.5 179.749 216.068C181.142 217.153 182.054 218.983 181.31 221.082C179.791 225.376 173.453 224.056 171.311 218.879C172.444 217.802 173.465 216.762 174.546 215.777L174.887 215.413V215.412Z" fill="#80C6AF"/>
<path fill-rule="evenodd" clip-rule="evenodd" d="M147.821 263.061C148.467 261.46 148.6 259.337 147.826 257.504L147.829 253.448C148.121 253.689 148.406 253.944 148.683 254.214C152.937 258.38 152.697 267.221 147.817 269.176L147.821 263.061Z" fill="#80C6AF"/>
<path fill-rule="evenodd" clip-rule="evenodd" d="M149.858 253.554L147.831 251.818L147.832 251.006C152.766 248.326 156.542 245.873 158.78 239.039C159.736 236.123 160.022 232.577 159.654 229.148C160.442 228.472 161.196 227.822 161.944 227.172C162.084 227.902 162.193 228.645 162.267 229.399C162.831 235.168 161.75 240.277 159.125 244.961C156.992 248.769 152.613 252.641 149.859 253.553L149.858 253.554Z" fill="#80C6AF"/>
<path fill-rule="evenodd" clip-rule="evenodd" d="M166.027 223.587C166 223.991 165.919 224.323 165.745 224.588C165.594 224.502 165.466 224.365 165.35 224.183L166.027 223.587Z" fill="#80C6AF"/>
<path fill-rule="evenodd" clip-rule="evenodd" d="M163.691 257.972C163.784 254.441 159.184 253.457 156.999 256.214C154.732 259.078 156.745 263.251 159.724 264.23C160.087 264.349 160.44 264.419 160.785 264.45C159.889 265.221 158.982 265.994 158.078 266.766C155.614 265.601 153.902 263.127 153.297 260.587C152.196 255.957 155.387 252.524 158.078 251.684C162.118 250.42 166.143 253.24 166.882 256.911C167.034 257.663 167.024 258.394 166.888 259.072C165.483 260.361 163.96 261.703 162.384 263.069C161.505 263.052 160.599 262.728 159.762 262.009C155.692 258.518 160.821 252.929 163.69 257.971L163.691 257.972Z" fill="#80C6AF"/>
<path fill-rule="evenodd" clip-rule="evenodd" d="M196.336 232.68C196.297 232.663 196.259 232.645 196.224 232.625C196.64 231.458 202.441 226.239 199.292 215.942C198.867 214.553 197.387 212.622 199.5 213.136C203.138 214.02 206.284 217.556 206.488 221.997C203.345 225.588 200.245 228.803 196.335 232.681L196.336 232.68Z" fill="#80C6AF"/>
<path fill-rule="evenodd" clip-rule="evenodd" d="M166.512 241.134C166.766 242.573 169.109 242.796 170.38 242.763C174.918 242.647 176.254 238.035 175.359 233.737C174.335 228.824 170.966 224.847 170.548 219.593L170.79 219.37C173.393 224.179 173.856 222.402 175.396 224.57C180.498 231.754 179.086 244.236 173.135 246.392C166.472 248.806 161.626 241.237 164.21 236.833C167.039 232.008 173.561 238.866 170.002 241.535C168.407 242.73 167.523 240.892 166.512 241.135V241.134Z" fill="#80C6AF"/>
<path fill-rule="evenodd" clip-rule="evenodd" d="M148.79 272.26C148.719 273.057 148.568 273.909 148.513 274.824C148.274 274.926 148.04 274.989 147.813 275L147.815 272.565C148.172 272.498 148.5 272.398 148.79 272.26Z" fill="#80C6AF"/>
<path fill-rule="evenodd" clip-rule="evenodd" d="M169.516 256.802C169.476 255.159 170.199 253.21 170.616 251.952C167.855 251.988 167.144 252.409 164.61 250.151C163.091 248.797 162.025 246.966 161.5 245.312C165.064 248.788 170.866 249.595 175.166 247.031C175.777 246.667 176.247 246.294 176.938 245.734L178.54 244.367C178.573 244.345 178.638 244.302 178.69 244.274C178.085 246.331 177.642 248.143 177.501 249.972C175.148 252.003 172.848 253.966 170.718 255.786C170.302 256.142 169.902 256.477 169.515 256.802H169.516Z" fill="#80C6AF"/>
<path fill-rule="evenodd" clip-rule="evenodd" d="M147.836 243.765C151.162 243.791 152.739 240.038 150.656 236.961C151.276 236.435 151.96 235.846 152.663 235.239C153.36 236.571 153.735 238.09 153.806 239.579C153.995 243.619 151.144 246.797 147.834 246.312L147.836 243.765ZM148.063 239.045C148.966 240.237 149.106 242.034 147.836 242.758L147.838 239.574L148.058 239.047L148.062 239.045H148.063Z" fill="#80C6AF"/>
<path fill-rule="evenodd" clip-rule="evenodd" d="M186.243 227.238C187.52 228.354 188.339 229.292 188.268 231.105C186.802 232.043 186.533 231.408 185.155 231.801C185.491 235.254 183.748 237.284 181.602 236.902C181.436 233.964 182.299 232.35 180.084 228.473C179.66 227.73 178.875 226.986 178.635 226.166C179.162 225.911 180.205 225.918 180.851 225.722C184.218 224.694 184.514 222.233 185.19 219.648C186.651 220.239 187.399 221.578 187.551 222.974C187.767 224.964 186.827 225.91 186.243 227.238Z" fill="#80C6AF"/>
<path fill-rule="evenodd" clip-rule="evenodd" d="M190.169 224.036C189.112 220.541 187.998 217.824 185.384 215.536C183.437 213.832 182.619 213.786 180.24 213.362C178.989 213.139 178.359 212.535 178.224 211.858L180.544 209.386C181.663 209.188 183.117 209.417 184.77 210.425C189.979 213.607 190.993 222.014 190.169 224.036Z" fill="#80C6AF"/>
<path fill-rule="evenodd" clip-rule="evenodd" d="M172.936 237.653C171.668 232.025 164.68 233.609 163.676 230.792C163.105 229.194 164.081 227.789 164.988 227.28C169.745 224.61 174.317 233.276 172.936 237.653Z" fill="#80C6AF"/>
<path fill-rule="evenodd" clip-rule="evenodd" d="M156.214 232.144C157.239 233.408 157.669 234.911 157.064 235.594C156.123 236.655 155.097 235.6 154.013 234.067C154.784 233.397 155.538 232.737 156.214 232.144Z" fill="#80C6AF"/>
<path fill-rule="evenodd" clip-rule="evenodd" d="M256.284 52.3741C253.46 51.6747 249.758 53.8894 250.935 56.8685C251.313 57.8241 251.959 58.3085 252.633 58.449C253.495 57.5927 254.249 56.6289 254.874 55.5784C254.438 54.8171 253.831 55.1011 253.339 54.6869C253.74 53.8492 254.826 53.4659 255.808 53.7128C255.988 53.2769 256.147 52.8306 256.284 52.3741ZM250.742 60.0326C250.357 59.8466 249.967 59.609 249.578 59.3157C249.171 59.0089 249.157 58.9097 248.822 58.5451C246.473 55.9947 247.625 52.2305 249.779 50.4858C251.657 48.9663 254.308 48.2163 256.862 47.265C256.823 46.6504 256.745 46.0461 256.63 45.4552C253.722 46.577 250.033 47.4592 248.301 49.0479C247.389 49.8856 246.685 50.4486 246.111 51.9113C244.663 55.6104 246.72 58.4418 248.064 61.5149C249.012 61.1151 249.91 60.6162 250.741 60.0315L250.742 60.0326Z" fill="#E9DDCA"/>
<path fill-rule="evenodd" clip-rule="evenodd" d="M231.733 40.4267C233.243 40.2459 233.751 43.3665 232.245 44.7363C231.124 45.7579 229.537 45.4945 228.441 44.7724C228.325 45.2445 228.234 45.7258 228.166 46.2144C229.545 46.7619 231.116 46.7382 232.504 46.0719C235.404 44.6805 236.104 39.1272 232.113 38.5921C231.984 38.5745 231.853 38.5673 231.721 38.5684C230.789 39.6055 230.005 40.7789 229.404 42.0536C229.78 42.4513 230.355 42.7509 231.009 42.536C232.136 42.1672 231.825 41.2593 231.733 40.4256V40.4267ZM240.831 33.8693C241.408 35.3837 241.231 36.9972 240.274 37.7802C239.808 38.1614 238.306 38.8245 237.718 38.1459C237.913 37.9981 237.761 38.0508 238.376 38.0736C238.665 38.0839 238.75 38.1283 239.004 37.9723C239.899 37.4248 239.625 35.2773 237.671 35.6378C235.884 35.9673 235.601 38.3845 236.666 39.5931C238.2 41.3326 241.308 40.7304 242.439 38.0074C243.005 36.646 242.956 35.1461 242.407 33.7784C241.874 33.7805 241.347 33.8115 240.83 33.8704L240.831 33.8693Z" fill="#E9DDCA"/>
<path fill-rule="evenodd" clip-rule="evenodd" d="M255.994 43.1827C250.403 44.8086 245.954 39.778 246.604 34.4354L246.61 34.3848C246.146 34.2464 245.673 34.1297 245.191 34.0377C245.15 34.4964 245.142 34.9757 245.172 35.4787C245.572 42.0929 251.244 46.045 256.345 44.2621C256.242 43.8964 256.123 43.537 255.992 43.1837L255.994 43.1827ZM248.621 35.1554C248.76 35.4126 248.947 35.6378 249.179 35.8113C249.652 36.1646 250.246 36.3846 250.872 36.4807C250.167 35.9745 249.415 35.5293 248.622 35.1554H248.621Z" fill="#E9DDCA"/>
<path fill-rule="evenodd" clip-rule="evenodd" d="M228.064 49.2112C228.982 49.0139 229.735 48.4922 229.927 47.4912C229.844 47.4685 229.055 47.5398 228.055 47.3632C228.039 47.6441 228.029 47.9261 228.029 48.2112C228.029 48.548 228.041 48.8816 228.064 49.2122V49.2112Z" fill="#E9DDCA"/>
<path fill-rule="evenodd" clip-rule="evenodd" d="M232.957 46.5585L231.533 47.1183C233.559 49.2225 235.079 50.929 235.318 54.4545C235.44 56.2529 234.988 58.3117 234.138 60.0016C234.471 60.2371 234.815 60.4582 235.168 60.6658C235.403 60.234 235.612 59.7775 235.79 59.2971C236.698 56.8366 236.793 54.3967 236.146 51.8907C235.619 49.8526 234.093 47.4169 232.958 46.5595L232.957 46.5585Z" fill="#E9DDCA"/>
<path fill-rule="evenodd" clip-rule="evenodd" d="M239.673 46.8827C239.313 48.4611 237.136 48.1388 236.467 46.5574C235.774 44.917 237.152 43.4006 238.602 43.4584C241.231 43.5628 241.707 47.9994 245.175 48.268C246.834 48.396 248.112 47.3899 248.557 46.0863C249.101 44.4935 248.089 42.9089 246.796 42.5391C245.258 42.099 243.589 43.4099 243.745 44.9356C243.968 47.1121 246.912 46.4003 246.021 44.7879C245.025 44.6939 245.834 45.2527 245.025 45.3798C244.343 44.5844 245.313 43.5566 246.218 43.6464C248.137 43.8406 247.948 47.1265 245.47 47.0718C243.789 47.0346 242.828 45.1463 241.786 43.9026C239.24 40.8626 236.372 42.0515 235.302 44.0121C234.283 45.8808 235.326 47.926 236.438 48.7421C238.109 49.9672 240.238 49.3815 240.987 47.8785C241.882 46.0801 240.24 43.7115 238.367 44.448C236.142 45.3229 237.812 48.6429 239.674 46.8838L239.673 46.8827Z" fill="#E9DDCA"/>
<path fill-rule="evenodd" clip-rule="evenodd" d="M249.598 57.4925C248.331 53.5145 252.357 50.3422 256.722 50.4496C256.768 50.1521 256.805 49.8515 256.832 49.5479C256.322 49.5592 255.795 49.6088 255.254 49.7049C253.107 50.085 251.407 51.0023 250.322 52.1417C248.995 53.532 248.286 55.6796 249.598 57.4925Z" fill="#E9DDCA"/>
<path fill-rule="evenodd" clip-rule="evenodd" d="M243.863 33.8457C243.879 33.8974 243.889 33.9407 243.893 33.9738L243.916 33.8498L243.864 33.8457H243.863Z" fill="#E9DDCA"/>
<path fill-rule="evenodd" clip-rule="evenodd" d="M239.028 54.8016C239.306 54.2066 240.383 54.4937 240.95 54.7179C242.976 55.5174 243.053 57.7786 242.162 59.5346C241.602 60.6389 240.755 61.5004 239.975 62.429C240.681 62.5509 241.403 62.6232 242.139 62.6387C244.385 59.952 244.74 55.2726 242.599 53.5661C239.88 51.4 236.844 53.9514 237.505 56.3273C238.229 58.9293 241.937 56.9677 240.642 55.2003C240.06 54.408 239.455 55.0763 239.028 54.8026V54.8016Z" fill="#E9DDCA"/>
<path fill-rule="evenodd" clip-rule="evenodd" d="M234.601 38.1015C234.714 37.3959 234.716 36.5489 235.184 35.7442C234.383 36.2132 233.631 36.7565 232.938 37.366C233.613 37.492 234.22 37.742 234.601 38.1015ZM239.384 34.107L239.505 34.1328L239.491 34.0842L239.384 34.107Z" fill="#E9DDCA"/>
<path fill-rule="evenodd" clip-rule="evenodd" d="M253.692 40.907C254.286 41.3605 254.57 41.7272 255.404 41.8181C254.634 40.2625 253.592 38.8649 252.34 37.6893C249.615 38.2637 248.664 35.9994 248.317 35.861C247.66 37.8908 248.401 39.7553 250.65 39.6726C250.491 40.719 251.11 41.3244 251.384 42.1549C253.416 41.8388 253.366 41.2324 253.692 40.906V40.907Z" fill="#E9DDCA"/>
<path fill-rule="evenodd" clip-rule="evenodd" d="M247.169 48.5955C244.997 48.2939 244.635 49.5334 244.068 50.3671C243.752 49.9384 243.45 47.9561 242.482 47.7454C241.877 48.3817 242.041 49.8526 242.101 50.6893C240.866 50.2183 240.594 49.9146 239.2 50.4972C238.363 50.8464 237.676 51.4806 237.253 52.1272C239.249 51.1759 241.947 51.775 243.588 53.6178C243.821 53.8802 243.989 54.123 244.236 54.4845L244.801 55.3532C244.814 55.3677 244.839 55.3976 244.858 55.4193C244.777 53.2749 244.902 51.743 246.099 49.9249C246.464 49.3702 246.829 49.0913 247.172 48.5955H247.169Z" fill="#E9DDCA"/>
<path fill-rule="evenodd" clip-rule="evenodd" d="M229.322 50.5003C232.365 49.8444 233.237 53.2047 230.973 54.3265C230.529 54.5465 230.055 54.6271 229.547 54.6601C229.789 55.1425 230.056 55.6094 230.348 56.0598C231.761 55.8615 232.739 54.7056 233.144 53.3968C233.709 51.5684 232.692 49.6099 231.035 49.3992C229.537 49.2081 228.352 50.1915 228.357 51.2823C228.408 51.5147 228.464 51.7461 228.526 51.9744C228.619 52.1614 228.752 52.3432 228.93 52.5177C230.195 53.7573 231.862 51.7781 230.673 50.8691C230.486 50.7255 230.332 50.6832 230.091 50.6491C229.903 50.6222 229.501 50.6439 229.323 50.5014L229.322 50.5003Z" fill="#E9DDCA"/>
<path fill-rule="evenodd" clip-rule="evenodd" d="M246.459 62.0821C246.422 62.0594 246.384 62.0346 246.344 62.0056C246.886 60.5326 246.334 59.3468 245.326 59.1619C244.924 60.4169 245.117 61.2671 243.75 62.5851C244.682 62.5025 245.587 62.3331 246.459 62.0821Z" fill="#E9DDCA"/>
<path fill-rule="evenodd" clip-rule="evenodd" d="M244.356 41.2645C245.563 41.7458 245.284 42.189 247.612 42.2014C247.468 41.9545 246.389 41.3915 245.359 40.0187C244.347 38.6696 244.416 37.7565 244.014 36.8557L243.92 37.0065C243.356 38.0633 242.805 39.7191 241.157 40.5207C240.611 40.7872 239.927 40.7821 239.515 40.9639C240.567 41.5785 240.992 41.6374 242.009 41.1612C242.274 41.4969 242.581 42.3966 243.447 42.6321C243.844 42.3181 244.163 41.7551 244.358 41.2655L244.356 41.2645Z" fill="#E9DDCA"/>
<path fill-rule="evenodd" clip-rule="evenodd" d="M241.52 57.4016C240.31 59.6835 237.352 57.8313 236.58 58.9129C236.143 59.5264 236.422 60.3084 236.771 60.6844C238.606 62.6502 241.644 59.5678 241.52 57.4026V57.4016Z" fill="#E9DDCA"/>
<path fill-rule="evenodd" clip-rule="evenodd" d="M231.236 57.2818C232.757 58.0297 234.538 56.4895 234.156 55.6983C233.624 54.5971 232.224 56.3614 231.05 57.0484C231.111 57.1269 231.173 57.2054 231.236 57.2828V57.2818Z" fill="#E9DDCA"/>
<path fill-rule="evenodd" clip-rule="evenodd" d="M233.061 59.1607C232.98 58.9903 232.86 58.8353 232.724 58.7155C232.585 58.5936 232.428 58.4955 232.256 58.4149C232.514 58.6732 232.784 58.9221 233.061 59.1607Z" fill="#E9DDCA"/>
<path fill-rule="evenodd" clip-rule="evenodd" d="M228.7 43.849C229.328 44.3273 230.035 44.0773 229.856 43.2736C229.782 42.941 229.419 42.7138 229.095 42.7571C228.949 43.1135 228.817 43.4782 228.7 43.849Z" fill="#E9DDCA"/>
<path fill-rule="evenodd" clip-rule="evenodd" d="M106.959 49.8112C103.502 48.2421 106.9 41.3604 112.051 40.5495C117.307 39.7221 120.958 44.8157 120.848 48.4673C120.787 50.4837 120.309 52.4453 119.493 54.3015C121.276 54.0619 123.046 53.8367 124.79 53.6291C126.952 45.5027 121.265 38.4485 113.419 37.5498C105.282 36.618 95.8431 46.8156 103.526 52.9845C106.861 55.662 113.436 55.4709 114.237 51.0704C114.509 49.5777 113.936 47.1038 111.519 46.5201C108.601 45.8157 107.961 48.0262 106.96 49.8081L106.959 49.8112ZM80.0758 60.8868C79.7907 60.4891 79.5294 60.0728 79.2938 59.6369C75.7104 52.9979 79.7246 44.7476 85.0795 44.1743C86.6114 44.01 90.7444 44.606 91.015 46.7133C90.389 46.7577 90.7888 46.8507 89.5162 46.016C88.9191 45.6256 88.8024 45.4293 88.0411 45.4149C85.3615 45.3663 82.8648 50.0023 87.5184 51.7821C91.7743 53.4101 95.8411 48.9445 95.3163 45.169C94.5602 39.7325 87.1145 36.961 80.8164 40.9503C74.1445 45.1762 72.4235 54.1611 77.0347 61.4115C78.2082 61.2122 79.237 61.0417 79.7969 60.9384L80.0768 60.8868H80.0758Z" fill="#80C6AF"/>
<path fill-rule="evenodd" clip-rule="evenodd" d="M71.5765 34.3951C70.7449 37.3711 69.1769 40.2562 66.8775 42.7601C58.4453 51.9412 46.7768 49.6583 45.2438 41.3728C45.1385 40.8036 45.1106 40.2448 45.1498 39.7004L44.811 39.7686C44.5683 41.6197 44.3483 44.6597 44.1551 48.1181C50.167 54.3646 63.8901 54.4431 71.4029 42.506C73.2261 39.6085 74.3779 36.648 74.9398 33.7505C73.818 33.9633 72.6972 34.1771 71.5775 34.393L71.5765 34.3951ZM59.5599 36.7833C60.411 38.9453 59.5361 41.2478 57.5321 41.3718C57.3462 39.8915 58.9442 38.5208 56.6479 37.3907L56.6334 37.3835L53.3465 38.0466C53.018 38.3638 52.7422 38.7573 52.548 39.216C51.0698 42.7085 55.2534 45.0079 58.7696 44.0234C62.4098 43.0039 64.4345 39.4515 63.3994 36.7182C63.3158 36.4961 63.2187 36.2782 63.1092 36.0633C61.9202 36.3019 60.7374 36.5426 59.5599 36.7833Z" fill="#80C6AF"/>
<path fill-rule="evenodd" clip-rule="evenodd" d="M139.336 39.2655C138.459 37.7563 137.66 34.2679 135.303 33.1203C132.663 35.7761 132.793 37.1272 131.813 39.7675C128.813 36.9743 124.104 34.9714 120.91 38.0176C121.267 38.3988 131.707 43.199 128.552 53.2075C132.525 52.7882 136.318 52.4793 139.788 52.3275C142.499 49.3773 144.767 46.0645 146.705 42.3076C146.946 41.8407 147.407 40.9213 147.936 39.8202L147.907 32.9023C144.796 34.1213 141.211 37.245 139.335 39.2655H139.336Z" fill="#80C6AF"/>
<path fill-rule="evenodd" clip-rule="evenodd" d="M113.156 36.0034L116.975 36.709C116.328 33.2588 115.811 30.1795 116.053 27.0217C114.91 27.1643 113.769 27.312 112.631 27.4649C112.259 30.8034 112.443 34.079 113.156 36.0024V36.0034ZM147.88 26.1065C147.81 26.1478 147.743 26.1891 147.672 26.2294C145.822 27.2696 144.452 27.72 142.645 27.3512C141.074 27.031 140.048 26.1385 139.775 25.0952C138.331 25.1396 136.893 25.1985 135.458 25.2719C135.874 26.6116 136.703 27.8533 137.978 28.7685C141.024 30.9543 144.655 31.0452 147.895 29.7291L147.88 26.1065Z" fill="#80C6AF"/>
<path fill-rule="evenodd" clip-rule="evenodd" d="M105.434 28.4948C105.815 29.3852 105.952 30.4285 105.722 31.5142C104.839 35.6781 99.7467 36.9425 96.7614 34.9747C95.0942 33.8766 94.4465 32.2207 94.147 30.3087C93.0272 30.4967 91.9033 30.6878 90.7743 30.883C92.1843 39.4216 99.629 40.5548 104.544 38.0901C109.005 35.8527 109.966 31.071 109.158 27.9463C107.915 28.124 106.674 28.3068 105.435 28.4938L105.434 28.4948ZM95.0394 30.1589C95.5239 31.6939 96.7284 32.9407 98.6755 33.2992C102.322 33.9706 104.195 30.9574 103.626 28.7716C100.75 29.2168 97.8884 29.6817 95.0394 30.1589Z" fill="#80C6AF"/>
<path fill-rule="evenodd" clip-rule="evenodd" d="M51.2681 55.4491C51.7516 58.1359 58.1798 61.1511 62.6732 59.112C62.7445 60.1285 61.3572 62.3101 63.3684 64.6054C64.9695 64.6529 66.7679 63.9298 68.2089 62.7615C68.9806 64.2408 69.2553 65.6487 70.3534 67.0298C70.4422 65.0682 70.5651 63.3297 70.7439 62.712C71.0951 62.557 71.9287 62.3587 72.9647 62.149C71.7179 59.8393 71.0455 57.1535 70.998 53.8377C70.9825 52.753 71.4773 47.99 71.9597 47.145C67.928 51.0455 67.0313 52.3285 61.9925 54.192C57.8585 55.7208 55.5415 55.5318 51.2681 55.447V55.4491Z" fill="#80C6AF"/>
<path fill-rule="evenodd" clip-rule="evenodd" d="M97.5527 50.7883C95.8287 52.5279 94.1656 55.0783 90.0688 55.54C87.3614 55.8447 84.1157 54.9626 81.4765 52.4421C80.677 54.7271 81.6077 57.9479 84.4597 59.8527C84.5517 59.9147 84.6426 59.9725 84.7324 60.0283C90.2991 59.0057 96.8141 57.827 103.629 56.7011C100.755 55.4409 98.0878 52.9958 97.5527 50.7883Z" fill="#80C6AF"/>
<path fill-rule="evenodd" clip-rule="evenodd" d="M64.9995 35.6842C65.1337 36.7058 65.1193 37.4837 65.2959 37.7202C66.3609 36.9259 67.2296 36.0406 67.8587 35.1182C66.9032 35.3062 65.9498 35.4942 64.9995 35.6842Z" fill="#80C6AF"/>
<path fill-rule="evenodd" clip-rule="evenodd" d="M126.503 32.7796C122.585 31.4098 121.582 28.563 122.461 26.2904C121.467 26.3927 120.475 26.5011 119.485 26.6137C118.872 28.9266 119.432 31.3117 121.298 32.7899C125.301 35.9632 131.251 33.8983 130.227 29.2561C129.323 25.1624 122.956 26.9835 124.172 30.319C124.364 30.8438 124.628 31.1268 125.09 31.5028C125.452 31.7972 126.331 32.2682 126.504 32.7796H126.503Z" fill="#80C6AF"/>
<path fill-rule="evenodd" clip-rule="evenodd" d="M77.5202 33.2661C77.7123 37.21 76.2703 38.9392 75.8312 41.2417L76.2444 41.0609C78.955 39.6716 82.495 37.0716 87.1351 37.5767C88.6742 37.744 90.1142 38.6283 91.2494 38.7915C89.9014 36.2173 89.0864 35.5583 86.2498 35.2091C86.1899 34.453 86.5339 33.0337 86.0804 31.7042C83.2387 32.2093 80.3794 32.731 77.5202 33.2661Z" fill="#80C6AF"/>
<path fill-rule="evenodd" clip-rule="evenodd" d="M118.411 47.2794C117.926 45.1731 115.845 44.5564 115.012 46.5294C114.391 48.0004 116.637 50.0653 118.411 47.2794Z" fill="#80C6AF"/>
<path fill-rule="evenodd" clip-rule="evenodd" d="M59.4711 93.3657C62.8448 92.5176 64.6111 92.1106 68.93 94.5567C69.3071 94.7705 69.6696 94.9988 70.0208 95.2405C70.0828 96.6629 70.1593 98.0833 70.2491 99.5015C67.5613 96.9831 63.5813 95.6062 58.8213 97.1691C57.8328 97.4945 57.7543 97.6887 56.8804 98.1876C50.7713 101.674 51.1494 110.318 54.6243 115.552C59.5754 123.01 69.8122 127.789 75.382 135.765C76.7734 141.31 78.5646 147.953 78.5904 148.214L75.0607 148.2C75.5793 142.72 71.9814 137.131 69.3959 134.356C64.2372 128.823 54.2101 123.095 50.8705 117.402C49.4491 114.98 48.3108 113.286 47.909 109.83C46.2707 95.7518 61.9791 93.2283 61.5339 79.2821C61.1744 68.034 50.7961 60.767 45.7459 65.7439C44.3483 67.1208 42.4011 72.3983 43.8597 73.924C44.5311 73.4457 44.9464 70.8612 48.2405 73.4292C49.634 74.5149 50.5461 76.3453 49.8034 78.4443C48.7911 81.3036 45.6416 81.6734 43.0178 80.0723C43.054 75.7462 43.1583 71.5358 43.3205 67.5413C43.3752 66.2025 43.4403 64.4403 43.5167 62.4425C49.9697 56.9047 61.1269 61.5045 64.6649 72.3198C65.8435 75.9249 66.2329 80.2128 65.0605 84.3922C63.5833 89.6604 61.4812 90.4785 59.4721 93.3657H59.4711ZM71.8957 116.332C71.4959 116.446 71.0724 116.533 70.6241 116.585C64.0823 117.35 55.9703 109.022 60.3078 103.248C64.2537 97.9944 71.1065 104.134 68.1522 108.297C66.6389 110.429 65.4324 109.026 64.0595 109.574C64.6132 112.549 68.6625 114.627 71.4556 112.797C71.5941 113.974 71.7407 115.151 71.8957 116.331V116.332ZM59.437 148.139C59.5744 146.875 60.0237 145.682 60.9276 144.812C63.0111 142.807 67.4425 142.92 68.7575 146.325C68.9889 146.923 69.0746 147.561 69.0405 148.176L59.437 148.139Z" fill="#80C6AF"/>
<path fill-rule="evenodd" clip-rule="evenodd" d="M72.1849 146.543C71.438 145.314 70.6344 143.296 69.5776 141.769C62.3902 131.384 53.2804 130.321 47.0071 134.342C46.8408 133.378 46.6786 132.426 46.5258 131.504C53.9642 127.509 63.6329 129.589 69.3958 138.624C70.3173 140.068 72.1601 144.091 72.1849 146.543ZM50.6267 148.104C50.3994 148.034 50.1753 147.979 49.9563 147.941C49.7269 147.485 49.4439 146.518 49.132 145.218C51.0667 145.534 53.0428 146.468 54.5127 147.748C54.6501 147.866 54.7844 147.991 54.9156 148.121L50.6267 148.104Z" fill="#80C6AF"/>
<path fill-rule="evenodd" clip-rule="evenodd" d="M44.5043 116.769C47.7055 117.874 49.6268 120.798 49.8437 123.706C50.0596 126.617 48.3201 128.788 46.1932 129.476C46.0362 128.511 45.8936 127.609 45.7686 126.803C47.943 125.671 48.1672 121.366 44.8111 119.648C44.7047 118.698 44.6024 117.739 44.5053 116.77L44.5043 116.769Z" fill="#80C6AF"/>
<path fill-rule="evenodd" clip-rule="evenodd" d="M69.8772 91.1014C69.5095 90.9196 69.1283 90.7574 68.7337 90.621C67.395 90.1583 65.485 90.4227 64.7144 89.9878C65.1307 88.8206 70.9319 83.602 67.7824 73.3042C67.3578 71.9159 65.8765 69.9853 67.991 70.4987C68.7565 70.6846 69.4981 70.9883 70.1975 71.3922C70.1634 72.5192 70.1344 73.4726 70.1055 74.0314C69.8039 79.8399 69.7357 85.5047 69.8783 91.1024L69.8772 91.1014Z" fill="#80C6AF"/>
<path fill-rule="evenodd" clip-rule="evenodd" d="M57.9113 100.948C52.5966 109.231 61.8779 120.574 72.6622 121.78C72.7758 122.537 72.8925 123.295 73.0124 124.055C70.557 123.705 67.9807 122.829 65.357 121.312C61.1848 118.9 58.2077 115.718 56.5932 112.544C54.6213 108.668 54.2969 103.697 57.9123 100.948H57.9113Z" fill="#80C6AF"/>
<path fill-rule="evenodd" clip-rule="evenodd" d="M73.9027 129.413C72.6311 128.151 71.4597 127.145 70.6561 126.148C71.2521 126.114 72.2107 126.286 73.4048 126.486C73.5525 127.383 73.7054 128.28 73.8614 129.182L73.9027 129.414V129.413Z" fill="#80C6AF"/>
<path fill-rule="evenodd" clip-rule="evenodd" d="M43.2461 97.483C44.1706 95.7445 44.3235 93.378 43.8493 91.0992C43.652 90.1499 43.3659 89.2357 43.0312 88.3402C43.0023 85.8631 42.9961 83.4036 43.0106 80.9761C43.274 81.1816 43.5549 81.4657 43.8865 81.9316C48.411 88.303 47.8118 98.8393 43.4682 102.646C43.3824 100.931 43.3091 99.2081 43.2471 97.482L43.2461 97.483Z" fill="#80C6AF"/>
<path fill-rule="evenodd" clip-rule="evenodd" d="M57.59 138.292C59.1953 137.753 59.9659 137.143 62.1578 137.89C63.7342 138.427 65.7454 140.011 65.4819 141.191C59.8636 139.922 57.4299 141.403 57.4082 147.446C56.5075 147.333 55.6119 145.789 54.6739 145.009C52.2382 142.986 50.196 142.501 48.5639 142.655C48.2726 141.252 47.9689 139.681 47.6693 138.052C48.5535 137.912 49.5875 138.051 50.7569 138.534C50.98 136.253 52.5543 135.471 53.5449 133.964C57.5167 136.156 57.0962 137.369 57.59 138.29V138.292Z" fill="#80C6AF"/>
<path fill-rule="evenodd" clip-rule="evenodd" d="M48.3283 117.476C46.2066 117.002 45.0496 116.14 44.3472 115.136C44.0239 111.66 43.7656 108.079 43.5632 104.449L43.6592 104.394C44.2697 104.03 44.7397 103.656 45.4308 103.096L47.0329 101.73C47.066 101.708 47.1311 101.665 47.1817 101.636C45.8977 106 45.3513 109.259 46.8387 113.918C47.2922 115.339 47.8903 116.193 48.3283 117.476Z" fill="#80C6AF"/>
<path fill-rule="evenodd" clip-rule="evenodd" d="M54.7348 84.6008C56.0116 85.7164 56.8307 86.6544 56.7595 88.4672C55.2937 89.4052 55.0251 88.7709 53.6471 89.1635C53.9828 92.6167 52.2402 94.6465 50.0937 94.2643C49.9274 91.3255 50.7909 89.713 48.5762 85.8342C48.1527 85.0915 47.3666 84.3477 47.128 83.5286C47.6548 83.2734 48.6981 83.2807 49.3437 83.0844C52.7112 82.0566 53.0067 79.596 53.6843 77.0105C55.1439 77.6014 55.8928 78.9401 56.0446 80.3367C56.2605 82.3262 55.3205 83.2714 54.7369 84.6008H54.7348Z" fill="#80C6AF"/>
<path fill-rule="evenodd" clip-rule="evenodd" d="M58.6612 81.3976C57.6024 77.903 56.4899 75.1853 53.8754 72.8972C51.9303 71.1938 51.1122 71.1474 48.7312 70.7238C44.3028 69.9346 47.6435 64.3586 53.2608 67.7881C58.4701 70.9697 59.4834 79.3771 58.6602 81.3986L58.6612 81.3976Z" fill="#80C6AF"/>
<path fill-rule="evenodd" clip-rule="evenodd" d="M85.2582 86.2289C84.6963 86.4706 84.2283 86.6741 83.8162 86.9251C83.81 87.109 83.8048 87.2949 83.8048 87.4809C83.8048 88.0965 83.8441 88.7029 83.9184 89.2979C84.5506 88.5138 85.4741 87.8393 86.7447 87.3879C87.2487 87.2092 87.3428 87.2547 87.8561 87.172C91.4457 86.5915 94.0736 89.7751 94.3546 92.6695C94.6056 95.255 93.678 98.0864 93.0293 100.946C93.6057 101.169 94.2017 101.356 94.8112 101.505C95.5157 98.3271 96.8534 94.6249 96.467 92.2078C96.2615 90.9238 96.1768 89.9827 95.2264 88.6357C92.4591 84.7094 88.0111 85.5254 84.125 84.447C84.0166 84.9521 83.935 85.4676 83.8812 85.9913C84.3172 86.0481 84.7624 86.108 85.2592 86.2299L85.2582 86.2289ZM88.1764 97.8272L88.2259 97.8003C91.1141 96.1238 91.7112 90.7492 88.101 89.99C84.8161 89.2989 84.0248 93.5207 86.5577 94.1198C87.8541 94.4266 87.8902 93.5692 88.6216 93.3544C89.2961 94.4772 88.5327 96.2116 87.0721 96.6248C87.4171 97.0462 87.7869 97.447 88.1774 97.8272H88.1764Z" fill="#80C6AF"/>
<path fill-rule="evenodd" clip-rule="evenodd" d="M112.03 83.2166C110.95 82.9625 109.724 81.9471 109.522 80.6476C109.421 79.9978 109.557 79.4059 109.841 78.8967C109.58 78.5444 109.303 78.2046 109.011 77.8782C108.596 78.5413 108.314 79.2954 108.204 80.1022C107.867 82.5483 110.161 85.2495 112.503 85.2774C112.394 84.5729 112.236 83.8839 112.03 83.2166ZM111.564 93.0278C111.229 92.6291 111.016 92.1766 110.968 91.6942C110.904 91.0662 111.192 89.368 112.126 89.2471C112.141 89.5033 112.185 89.339 111.809 89.8648C111.632 90.1117 111.544 90.1603 111.534 90.4733C111.521 90.8565 111.76 91.2273 112.111 91.467C112.463 90.2429 112.656 88.9517 112.668 87.6181C112.279 87.4849 111.865 87.4342 111.467 87.49C109.058 87.8268 107.788 90.8947 109.517 93.4585C109.85 93.9544 110.255 94.381 110.715 94.7363C111.034 94.1889 111.318 93.6187 111.564 93.0278Z" fill="#80C6AF"/>
<path fill-rule="evenodd" clip-rule="evenodd" d="M97.3048 101.883C99.0258 97.2486 104.168 95.9553 108.243 97.8828C108.589 97.5502 108.919 97.199 109.229 96.8333C103.559 94.1672 97.5321 96.7104 96.0776 101.752C96.4815 101.813 96.8906 101.856 97.3048 101.883Z" fill="#80C6AF"/>
<path fill-rule="evenodd" clip-rule="evenodd" d="M107.517 80.2168L107.851 78.6467C104.839 79.2025 102.467 79.5464 99.2426 77.7181C97.5754 76.7719 96.0156 75.1553 95.0301 73.4054C94.6025 73.5025 94.1821 73.6192 93.7699 73.7535C94.0385 74.2927 94.3587 74.8216 94.7326 75.3309C96.3616 77.5487 98.441 79.0423 101.009 79.9245C103.096 80.6424 106.111 80.7137 107.517 80.2168Z" fill="#80C6AF"/>
<path fill-rule="evenodd" clip-rule="evenodd" d="M91.6771 74.6213C91.7102 74.6358 91.7443 74.6482 91.7784 74.6574C91.7928 74.6254 91.8021 74.5924 91.8073 74.5573L91.6782 74.6223L91.6771 74.6213Z" fill="#80C6AF"/>
<path fill-rule="evenodd" clip-rule="evenodd" d="M103.35 85.9054C102.176 84.6793 103.717 82.9594 105.487 83.2879C107.325 83.6298 107.854 85.7123 106.966 86.9467C105.355 89.1882 101.198 87.0386 98.9575 89.9186C97.8853 91.2965 98.0278 92.9968 98.911 94.1393C99.9905 95.5359 101.961 95.5669 103.033 94.6486C104.307 93.5567 104.126 91.3389 102.7 90.5931C100.666 89.5291 99.5866 92.5186 101.514 92.6714C102.172 91.8533 101.216 92.2397 101.572 91.4567C102.662 91.3193 103.003 92.7634 102.398 93.5019C101.12 95.069 98.3532 93.0041 99.8335 90.8679C100.838 89.4176 103.046 89.6696 104.737 89.4764C108.87 89.0054 109.487 85.8094 108.391 83.7383C107.345 81.7653 104.952 81.4957 103.595 81.9987C101.556 82.7538 100.838 84.9541 101.721 86.4787C102.776 88.302 105.798 88.2338 106.236 86.1699C106.756 83.7166 102.886 83.259 103.35 85.9044V85.9054Z" fill="#80C6AF"/>
<path fill-rule="evenodd" clip-rule="evenodd" d="M88.3282 88.458C92.7484 89.7079 93.0242 95.5431 89.9634 99.3063C90.2331 99.4953 90.5089 99.6751 90.7909 99.8455C91.1999 99.2691 91.5646 98.6245 91.8734 97.9097C92.7824 95.8107 92.9611 93.7933 92.5924 92.1849C92.142 90.2213 90.6731 88.3578 88.3282 88.458Z" fill="#80C6AF"/>
<path fill-rule="evenodd" clip-rule="evenodd" d="M96.7935 80.7643C97.153 81.351 96.2791 82.1288 95.7554 82.4955C93.8857 83.8054 91.8611 82.5658 90.8394 80.7715C90.0213 79.3346 89.8168 77.718 89.2435 76.1934C88.7601 76.5797 88.3014 76.996 87.8717 77.4402L87.8758 77.5249C88.1269 81.5969 92.7133 85.611 95.8112 84.6049C99.2789 83.4779 98.8016 79.346 96.34 78.5506C93.644 77.6798 93.2174 82.0586 95.5137 81.946C96.5425 81.8954 96.308 80.9802 96.7945 80.7643H96.7935Z" fill="#80C6AF"/>
<path fill-rule="evenodd" clip-rule="evenodd" d="M100.475 101.629C100.261 101.704 100.069 101.76 99.8893 101.818C102.561 101.514 105.011 100.48 107.036 98.921C105.767 98.0233 104.283 98.0936 103.314 99.6813C102.489 98.9365 101.602 99.1276 100.717 98.8879C99.818 100.85 100.379 101.155 100.475 101.629Z" fill="#80C6AF"/>
<path fill-rule="evenodd" clip-rule="evenodd" d="M97.5175 91.4763C99.037 89.7502 98.1611 88.7172 97.7603 87.738C98.3191 87.7091 100.228 88.5912 100.972 87.8661C100.765 86.9674 99.3821 86.2619 98.6156 85.8301C99.7426 85.0202 100.165 84.9582 100.462 83.4016C100.639 82.4688 100.481 81.4998 100.161 80.7561C99.8407 83.0534 97.7562 85.0677 95.1944 85.4376C94.8308 85.4902 94.5209 85.4975 94.0612 85.5037L92.9745 85.4964C92.9549 85.4985 92.9136 85.5026 92.8846 85.5068C94.808 86.6751 96.0765 87.6698 96.9752 89.7688C97.249 90.4093 97.2831 90.8906 97.5186 91.4763H97.5175Z" fill="#80C6AF"/>
<path fill-rule="evenodd" clip-rule="evenodd" d="M105.928 75.2659C104.578 77.65 101.559 76.461 101.865 73.9912C101.885 73.8342 101.918 73.6823 101.96 73.5336C101.47 73.4034 100.969 73.297 100.458 73.2185C100.25 74.3517 100.684 75.5262 101.423 76.428C102.697 77.9805 104.999 78.2212 106.141 76.8938C106.431 76.5561 106.626 76.1862 106.735 75.8154C106.472 75.6233 106.203 75.4404 105.927 75.2659H105.928ZM103.632 74.0903C103.36 74.9529 104.043 76.0819 105.066 75.7255C105.299 75.645 105.425 75.5355 105.594 75.3433C105.637 75.2958 105.687 75.2256 105.744 75.1502C105.074 74.7421 104.368 74.3858 103.632 74.0893V74.0903Z" fill="#80C6AF"/>
<path fill-rule="evenodd" clip-rule="evenodd" d="M84.4401 83.2341C84.5207 83.3829 84.6302 83.5306 84.7779 83.6804C85.6714 83.5771 85.5764 83.2713 86.2592 83.0007C87.2343 84.327 88.5917 84.5295 89.3364 83.7547C88.4584 82.6608 87.5907 82.3458 87.2374 80.3077C87.1692 79.9172 87.2478 79.4193 87.0804 79.0568C86.8387 79.1105 86.5143 79.3305 86.2272 79.4762C85.4617 80.6238 84.8554 81.8871 84.4412 83.2341H84.4401Z" fill="#80C6AF"/>
<path fill-rule="evenodd" clip-rule="evenodd" d="M105.56 93.2531C104.442 94.0309 104.215 93.5299 102.859 95.5607C103.158 95.5783 104.275 94.9585 106.072 94.8511C107.837 94.7447 108.596 95.3335 109.618 95.5029L109.539 95.3345C108.94 94.2292 107.811 92.7903 108.061 90.8834C108.144 90.2512 108.544 89.6562 108.622 89.1893C107.475 89.7554 107.179 90.0932 107.008 91.2584C106.561 91.2966 105.595 91.0446 104.889 91.6654C104.933 92.1943 105.242 92.7986 105.559 93.2531H105.56Z" fill="#80C6AF"/>
<path fill-rule="evenodd" clip-rule="evenodd" d="M93.0778 81.441C91.7793 79.063 95.1117 77.5456 94.6107 76.2451C94.3266 75.5075 93.4806 75.2989 92.9507 75.3877C90.1689 75.8567 91.111 80.2964 93.0778 81.441Z" fill="#80C6AF"/>
<path fill-rule="evenodd" clip-rule="evenodd" d="M98.5247 73.0511C97.7117 74.1398 98.0598 75.8794 98.8253 75.9816C99.9254 76.1293 99.5236 74.4704 99.4451 73.0976C99.1414 73.0717 98.8335 73.0562 98.5247 73.05V73.0511Z" fill="#80C6AF"/>
<path fill-rule="evenodd" clip-rule="evenodd" d="M95.9856 207.88C97.2428 206.654 97.8842 206.004 98.0041 203.682C98.2757 198.388 92.1202 194.613 89.1649 198.279C87.0989 200.843 88.449 206 92.0407 205.423C95.308 204.898 94.5446 200.732 92.0014 201.076C90.6999 201.252 90.9695 202.054 90.3724 202.51C89.2506 201.633 89.4738 199.457 91.0439 198.71C94.6552 196.991 99.1094 203.14 94.2089 207.339C93.8081 207.682 93.7048 207.674 93.2617 207.931C90.1638 209.733 86.6186 207.734 85.3377 205.169C84.063 202.617 84.0258 199.269 83.4794 196.113C82.8772 196.288 82.2915 196.503 81.7244 196.752C82.2656 200 82.2894 204.153 83.5569 206.34C84.1994 207.449 84.6105 208.285 85.9606 209.189C91.3001 212.765 96.403 207.21 101.967 209.768C101.956 209.023 101.89 208.291 101.771 207.578C101.603 207.535 101.433 207.497 101.259 207.463C98.6445 206.956 97.7386 207.658 95.9856 207.879V207.88ZM100.828 215.6C100.556 215.34 100.184 215.154 99.7012 215.092C97.4442 214.804 96.311 217.843 98.0598 219.841C99.2157 218.61 100.158 217.177 100.828 215.6Z" fill="#E9DDCA"/>
<path fill-rule="evenodd" clip-rule="evenodd" d="M79.363 198.071C79.2577 201.519 76.9552 203.98 74.0184 204.903C73.8439 205.368 73.693 205.843 73.567 206.33C77.9758 205.275 80.9352 201.529 80.5365 197.344C80.1336 197.568 79.7421 197.811 79.3641 198.071H79.363Z" fill="#E9DDCA"/>
<path fill-rule="evenodd" clip-rule="evenodd" d="M79.4457 221.919C81.3825 220.858 83.2687 220.226 86.1249 220.656C88.2445 220.975 90.5409 222.136 92.111 223.659C92.5335 223.518 92.9467 223.357 93.3505 223.179C92.7277 222.463 91.9798 221.811 91.1183 221.258C88.8354 219.793 86.3935 219.153 83.718 219.249C81.8215 219.316 79.4498 220.086 78.1317 220.914C78.549 221.274 78.987 221.61 79.4446 221.919H79.4457Z" fill="#E9DDCA"/>
<path fill-rule="evenodd" clip-rule="evenodd" d="M95.9174 221.718C95.0569 221.215 94.5497 220.785 94.0756 220.834C94.0591 221.179 94.5394 221.539 95.1127 222.252C95.3865 222.083 95.655 221.905 95.9164 221.718H95.9174Z" fill="#E9DDCA"/>
<path fill-rule="evenodd" clip-rule="evenodd" d="M79.4498 214.572C80.9641 215.286 80.1532 217.414 78.4085 217.736C76.5967 218.072 75.3726 216.341 75.7538 214.891C76.4449 212.258 81.0302 212.767 82.0746 209.324C82.5745 207.678 81.8422 206.162 80.6253 205.424C79.1378 204.52 77.3136 205.188 76.6514 206.412C75.8643 207.868 76.8157 209.845 78.391 210.027C80.6387 210.286 80.5757 207.154 78.7484 207.694C78.4302 208.68 79.176 207.987 79.1244 208.833C78.1689 209.344 77.3466 208.135 77.641 207.242C78.2639 205.347 81.5395 206.27 80.9321 208.76C80.5199 210.449 78.3992 210.999 76.9107 211.774C74.9264 212.808 74.1919 214.218 74.2178 215.533C74.6909 216.664 75.3044 217.721 76.0358 218.685C77.6379 219.682 79.6306 219.11 80.6067 218.252C82.2161 216.837 82.0994 214.558 80.7472 213.468C79.1306 212.162 76.3736 213.293 76.7 215.349C77.0884 217.79 80.8123 216.842 79.4498 214.572Z" fill="#E9DDCA"/>
<path fill-rule="evenodd" clip-rule="evenodd" d="M99.5701 201.997C99.7457 202.799 99.8346 203.698 99.6125 204.605C99.4514 205.262 98.8305 206.001 98.8088 206.416C99.0991 206.452 100.119 206.169 101.487 206.256C101.079 204.721 100.425 203.286 99.5701 201.997Z" fill="#E9DDCA"/>
<path fill-rule="evenodd" clip-rule="evenodd" d="M92.3723 206.913C87.1888 207.389 84.9028 200.351 87.9594 195.54C87.8189 195.536 87.6784 195.534 87.5369 195.534C87.2611 195.534 86.9874 195.542 86.7157 195.558C86.1734 196.687 85.8315 197.993 85.7695 199.468C85.6745 201.721 86.223 203.641 87.132 204.99C88.2404 206.639 90.2505 207.834 92.3733 206.913H92.3723Z" fill="#E9DDCA"/>
<path fill-rule="evenodd" clip-rule="evenodd" d="M84.9927 195.757C85.0382 195.924 85.0857 196.082 85.1404 196.227C85.2334 196.098 85.3285 195.913 85.4328 195.687C85.2851 195.709 85.1384 195.731 84.9917 195.757H84.9927Z" fill="#E9DDCA"/>
<path fill-rule="evenodd" clip-rule="evenodd" d="M87.3015 216.986C86.7633 216.573 87.2932 215.549 87.6454 215.026C88.9036 213.16 91.2051 213.586 92.7783 214.876C94.6624 216.42 95.4279 218.816 97.7676 220.074C96.2222 217.719 97.1757 217.958 96.654 216.816C94.9837 213.157 89.3437 211.084 86.849 213.105C84.0548 215.368 85.9555 219.002 88.5018 218.864C91.2908 218.713 90.1359 214.532 88.0617 215.447C87.1321 215.857 87.6723 216.617 87.3004 216.987L87.3015 216.986Z" fill="#E9DDCA"/>
<path fill-rule="evenodd" clip-rule="evenodd" d="M75.48 202.032C76.104 202.015 76.6576 201.758 77.2836 201.694C77.3384 200.826 77.2671 200.299 77.1452 199.951C76.5285 200.591 75.9707 201.287 75.48 202.032Z" fill="#E9DDCA"/>
<path fill-rule="evenodd" clip-rule="evenodd" d="M82.8483 207.383C82.0601 209.509 83.2315 210.151 83.9463 210.909C83.4423 211.132 81.3732 210.996 80.9456 211.927C81.4538 212.681 82.9754 212.842 83.8327 212.968C83.0817 214.111 82.715 214.318 82.9919 215.855C83.1582 216.777 83.6458 217.612 84.2036 218.183C83.6871 215.956 84.8936 213.365 87.1207 212.12C87.4368 211.943 87.7188 211.826 88.1392 211.658L89.1422 211.281C89.1608 211.273 89.1959 211.254 89.2218 211.239C87.0391 210.843 85.5185 210.376 83.9505 208.763C83.4712 208.27 83.2708 207.839 82.8462 207.382L82.8483 207.383Z" fill="#E9DDCA"/>
<path fill-rule="evenodd" clip-rule="evenodd" d="M82.2058 223.382C83.027 223.065 84.0145 223.316 84.6033 224.1C85.1539 224.214 85.7169 224.295 86.2891 224.344C85.9193 223.623 85.2944 223.025 84.5713 222.614C83.3204 221.902 81.8143 222.022 80.8608 222.765C81.2968 222.992 81.744 223.199 82.2047 223.382H82.2058Z" fill="#E9DDCA"/>
<path fill-rule="evenodd" clip-rule="evenodd" d="M98.4204 211.724C98.2902 210.954 98.1126 210.412 97.3285 210.055C96.5424 210.466 96.7387 210.713 96.2057 211.203C94.8391 210.328 93.5189 210.621 93.1078 211.598C94.3019 212.294 95.213 212.278 96.2584 214.029C96.4588 214.364 96.5631 214.85 96.8451 215.125C97.093 214.959 97.3678 214.522 97.6229 214.296C98.9534 213.111 100.07 213.512 101.342 213.782C101.481 213.046 101.116 212.449 100.568 212.089C99.786 211.575 99.1373 211.764 98.4214 211.725L98.4204 211.724Z" fill="#E9DDCA"/>
<path fill-rule="evenodd" clip-rule="evenodd" d="M74.8189 208.591C75.573 207.48 75.9583 207.861 76.4892 205.512C76.2083 205.602 75.3995 206.566 73.7829 207.301C73.6196 207.374 73.4647 207.438 73.3159 207.493C73.1765 208.297 73.1042 209.123 73.1042 209.967C73.1042 210.318 73.1176 210.666 73.1424 211.011C73.2281 211.213 73.2994 211.428 73.3552 211.656C73.4554 212.073 73.4141 212.527 73.4079 212.917C73.4378 213.06 73.4699 213.2 73.5029 213.342C74.3004 212.465 74.4398 212.042 74.1919 210.938C74.5896 210.745 75.5668 210.635 75.9976 209.814C75.7682 209.343 75.2714 208.896 74.82 208.59L74.8189 208.591Z" fill="#E9DDCA"/>
<path fill-rule="evenodd" clip-rule="evenodd" d="M100.817 210.77C101.196 211.147 101.541 211.51 101.843 211.88C101.873 211.653 101.897 211.423 101.917 211.193C101.473 210.939 101.079 210.79 100.817 210.77Z" fill="#E9DDCA"/>
<path fill-rule="evenodd" clip-rule="evenodd" d="M90.4819 215.05C92.5169 216.779 89.9871 219.355 90.9075 220.374C91.4292 220.952 92.2824 220.845 92.738 220.576C95.1324 219.162 92.6956 215.408 90.4819 215.05Z" fill="#E9DDCA"/>
<path fill-rule="evenodd" clip-rule="evenodd" d="M88.5885 197.007C88.9862 196.863 89.3932 196.303 91.1048 195.978C90.578 195.844 90.0388 195.741 89.4903 195.667C89.136 196.097 88.8147 196.567 88.5895 197.007H88.5885Z" fill="#E9DDCA"/>
<path fill-rule="evenodd" clip-rule="evenodd" d="M88.4997 224.367C88.6402 223.17 87.7993 221.945 87.1206 222.107C86.222 222.32 86.7632 223.341 87.289 224.397C87.3706 224.398 87.4533 224.4 87.5359 224.4C87.8592 224.4 88.1805 224.388 88.4997 224.367Z" fill="#E9DDCA"/>
<path fill-rule="evenodd" clip-rule="evenodd" d="M90.923 223.999C90.5718 223.883 90.1627 224.001 89.8673 224.212C90.2237 224.154 90.5759 224.083 90.923 223.999Z" fill="#E9DDCA"/>
<path fill-rule="evenodd" clip-rule="evenodd" d="M147.887 234.374C145.125 230.841 145.759 226.229 147.921 222.951C147.923 221.157 147.923 219.363 147.922 217.568C147.753 217.702 147.592 217.838 147.44 217.978C145.809 219.474 144.552 220.479 143.527 223.093C141.321 228.729 143.669 233.238 145.897 237.848C146.602 238.398 147.425 239.052 147.838 239.574L148.058 239.047C147.953 238.5 147.904 236.65 147.886 234.374H147.887Z" fill="white" fill-opacity="0.501961"/>
<path fill-rule="evenodd" clip-rule="evenodd" d="M117.842 202.577C120.539 202.253 121.446 207.83 118.759 210.276C118.112 210.864 117.379 211.214 116.616 211.374C117.163 211.943 117.708 212.507 118.251 213.062C118.579 212.947 118.901 212.814 119.219 212.661C124.402 210.175 125.65 200.254 118.522 199.299C115.429 198.885 111.639 201.482 113.028 204.53C113.499 205.563 114.881 206.892 116.549 206.345C118.563 205.685 118.007 204.064 117.842 202.575V202.577ZM108.289 202.153C108.047 195.327 112.54 187.913 119.689 185.605C122.994 184.538 126.825 184.228 129.973 186.018C134.885 188.81 136.008 195.472 133.099 197.849C132.267 198.529 129.584 199.714 128.535 198.501C128.884 198.237 128.609 198.33 129.71 198.371C130.227 198.389 130.379 198.468 130.832 198.19C132.43 197.211 131.941 193.376 128.45 194.019C125.258 194.606 124.752 198.926 126.655 201.085C129.396 204.192 134.948 203.116 136.969 198.253C137.606 196.719 137.807 195.088 137.623 193.479C134.786 190.526 132.089 187.464 129.434 184.156L128.787 183.348C127.85 183.041 126.851 182.82 125.796 182.699C115.616 181.538 107.031 189.491 105.23 198.404C106.188 199.625 107.215 200.88 108.289 202.152V202.153Z" fill="white" fill-opacity="0.501961"/>
<path fill-rule="evenodd" clip-rule="evenodd" d="M147.788 203.455C147.478 203.087 147.187 202.701 146.914 202.301C146.537 201.984 146.022 201.585 145.316 200.944C144.434 200.141 143.571 199.341 142.722 198.537C143.756 201.857 145.607 204.604 147.929 206.595V206.531C147.934 204.854 147.945 204.014 147.788 203.455Z" fill="white" fill-opacity="0.501961"/>
<path fill-rule="evenodd" clip-rule="evenodd" d="M120.028 213.531L119.079 213.902C120.741 215.58 122.376 217.175 123.93 218.635C122.741 216.422 121.255 214.458 120.028 213.53V213.531Z" fill="white" fill-opacity="0.501961"/>
<path fill-rule="evenodd" clip-rule="evenodd" d="M132.025 214.11C131.384 216.93 127.493 216.354 126.298 213.531C125.059 210.599 127.522 207.892 130.111 207.994C134.81 208.18 135.657 216.106 141.854 216.586C144.819 216.817 147.1 215.018 147.895 212.69L147.92 212.612L147.921 209.567C147.416 208.005 146.18 206.763 144.748 206.354C142 205.567 139.018 207.908 139.297 210.634C139.696 214.523 144.956 213.251 143.364 210.369C141.584 210.2 143.03 211.198 141.583 211.426C140.364 210.006 142.098 208.168 143.714 208.331C147.143 208.677 146.805 214.546 142.378 214.449C139.375 214.383 137.659 211.01 135.798 208.787C131.248 203.356 126.126 205.481 124.213 208.982C122.391 212.32 124.255 215.975 126.243 217.431C129.228 219.62 133.03 218.575 134.368 215.888C135.968 212.675 133.033 208.444 129.689 209.76C125.715 211.323 128.698 217.253 132.022 214.11H132.025Z" fill="white" fill-opacity="0.501961"/>
<path fill-rule="evenodd" clip-rule="evenodd" d="M125.119 178.618C124.045 179.052 123.091 179.596 122.463 180.152C123.853 180.133 125.15 180.165 126.364 180.276C126.198 180.059 126.03 179.84 125.863 179.619C125.628 179.308 125.379 178.972 125.12 178.618H125.119Z" fill="white" fill-opacity="0.501961"/>
<path fill-rule="evenodd" clip-rule="evenodd" d="M135.077 228.479C135.636 228.805 136.087 229.208 136.437 229.666L139.807 232.609C139.799 229.884 138.982 227.425 137.255 226.049C135.136 224.361 132.911 224.277 131.173 225.07L135.079 228.48L135.077 228.479Z" fill="white" fill-opacity="0.501961"/>
<path fill-rule="evenodd" clip-rule="evenodd" d="M122.966 198.422C123.246 196.687 123.147 194.469 125.362 192.637C126.827 191.425 129.11 190.752 131.728 191.332C131.233 189.605 129.325 187.946 126.843 187.831C123.969 187.698 123.221 189.3 121.978 190.984C120.775 189.845 122.419 188.566 117.801 188.329C116.723 190.272 116.659 190.905 117.21 193.27C114.605 192.961 113.381 194.281 112.327 195.758C111.199 197.341 110.37 199.598 110.421 201.912C111.692 200.192 112.248 198.49 115.407 197.371C117.812 196.517 121.425 196.969 122.966 198.422Z" fill="white" fill-opacity="0.501961"/>
<path fill-rule="evenodd" clip-rule="evenodd" d="M145.417 217.17C141.537 216.631 140.89 218.845 139.877 220.335C139.312 219.568 138.773 216.026 137.043 215.651C135.961 216.789 136.255 219.415 136.363 220.91C134.154 220.068 133.669 219.527 131.178 220.566C130.061 221.032 129.094 221.783 128.36 222.615L128.846 223.038C132.244 222.024 136.388 223.189 139.016 226.141C139.433 226.609 139.733 227.043 140.174 227.689L141.183 229.241C141.205 229.268 141.249 229.322 141.284 229.36C141.138 225.53 141.361 222.791 143.499 219.545C144.152 218.554 144.805 218.055 145.417 217.17Z" fill="white" fill-opacity="0.501961"/>
<path fill-rule="evenodd" clip-rule="evenodd" d="M140.393 204.072C142.549 204.931 142.05 205.722 146.209 205.744C145.953 205.303 144.024 204.297 142.183 201.845C140.375 199.435 140.499 197.805 139.781 196.193L139.613 196.462C138.605 198.351 137.621 201.308 134.676 202.741C133.7 203.217 132.478 203.207 131.741 203.534C133.622 204.632 134.379 204.736 136.197 203.886C136.669 204.484 137.219 206.092 138.765 206.514C139.475 205.953 140.044 204.947 140.392 204.072H140.393Z" fill="white" fill-opacity="0.501961"/>
<path fill-rule="evenodd" clip-rule="evenodd" d="M114.249 208.866C114.5 208.624 114.612 208.217 114.489 207.661C114.31 206.853 113.173 206.393 112.56 207.026C113.119 207.642 113.683 208.255 114.249 208.867V208.866Z" fill="white" fill-opacity="0.501961"/>
<path fill-rule="evenodd" clip-rule="evenodd" d="M92.7535 175.448C95.2884 177.112 96.6241 177.954 100.586 177.291C109.619 175.78 113.697 163.988 106.413 160.369C101.318 157.837 93.1202 162.035 95.43 167.878C97.531 173.195 104.275 170.356 102.749 166.195C101.967 164.064 100.714 164.818 99.723 163.98C100.785 161.761 104.538 161.327 106.385 163.699C110.63 169.152 101.911 178.955 93.0045 172.249C92.2763 171.701 92.2536 171.524 91.6534 170.872C87.4585 166.315 89.5151 159.592 93.365 156.476C97.405 153.206 103.449 151.929 108.786 149.62C108.556 149.042 108.324 148.486 108.107 148.121L103.879 148.127C99.0268 149.849 93.4859 151.377 90.7258 153.908C89.0947 155.405 87.8376 156.41 86.8129 159.025C85.0527 163.521 86.191 167.3 87.8551 170.986C89.8374 174.956 91.9788 178.834 94.2679 182.599C94.6707 183.261 95.0529 183.88 95.4217 184.465L95.4176 184.192C95.3008 179.591 93.7793 178.325 92.7525 175.45L92.7535 175.448Z" fill="white" fill-opacity="0.501961"/>
<path fill-rule="evenodd" clip-rule="evenodd" d="M78.7463 148.162C80.3103 150.209 82.0663 152.276 85.1384 152.514C88.103 152.744 90.3849 150.946 91.1803 148.617C91.234 148.459 91.2784 148.301 91.3166 148.143L89.1195 148.146C88.6918 149.38 87.5483 150.418 85.6652 150.377C84.0775 150.341 82.8493 149.382 81.7699 148.157L78.7474 148.162H78.7463ZM83.183 148.156C84.1705 149.387 86.0484 149.173 86.7106 148.151L83.183 148.156Z" fill="white" fill-opacity="0.501961"/>
<path fill-rule="evenodd" clip-rule="evenodd" d="M102.624 189.922C103.755 190.246 106.261 191.848 107.7 191.118C108.865 189.88 108.247 187.139 107.754 185.955C109.986 185.269 110.469 185.327 111.856 184.056C111.396 182.418 109.831 181.398 107.621 180.827C108.278 179.339 108.543 179.075 108.04 177.321C106.578 177.558 103.466 180.437 99.63 180.345C98.4607 180.317 96.9815 179.547 96.2749 179.662C96.3441 180.398 98.1436 183.502 97.5992 187.791C98.7933 189.549 99.9595 191.169 101.357 193.142C101.987 192.247 102.437 191.167 102.624 189.922Z" fill="white" fill-opacity="0.501961"/>
<path fill-rule="evenodd" clip-rule="evenodd" d="M93.0396 168.992C90.2061 160.094 102.198 153.452 111.641 157.743C112.103 157.952 112.545 158.184 112.969 158.432L111.532 155.632C109.065 154.796 106.243 154.53 103.144 155.079C99.3077 155.757 96.2718 157.397 94.3329 159.432C91.9643 161.916 90.6968 165.752 93.0396 168.991V168.992ZM119.525 170.332C119.263 172.262 116.1 178.21 113.682 176.903C113.998 176.314 117.147 176.388 116.241 173.166C115.811 171.631 113.829 170.452 111.784 171.237C108.453 172.516 108.68 177.796 112.66 179.279C116.603 180.747 119.843 177.704 121.093 175.114C121.324 174.637 121.514 174.145 121.671 173.642C120.945 172.55 120.219 171.431 119.525 170.332Z" fill="white" fill-opacity="0.501961"/>
<path fill-rule="evenodd" clip-rule="evenodd" d="M109.79 152.056C109.263 152.306 108.785 152.548 108.377 152.813C108.802 152.996 109.495 153.133 110.355 153.299C110.161 152.884 109.974 152.475 109.79 152.056Z" fill="white" fill-opacity="0.501961"/>
<path fill-rule="evenodd" clip-rule="evenodd" d="M88.7011 153.098C84.8213 152.559 84.1746 154.774 83.1613 156.264C82.5963 155.496 82.057 151.955 80.3278 151.579C80.1471 151.768 80.0055 151.999 79.895 152.259C80.3413 153.469 80.8092 154.648 81.1387 155.553C82.0271 157.994 83.0198 160.391 84.0486 162.783C84.2087 163.156 84.3709 163.528 84.5341 163.9C84.5083 160.766 84.9132 158.314 86.7839 155.473C87.4357 154.483 88.0896 153.984 88.7011 153.098Z" fill="white" fill-opacity="0.501961"/>
<path fill-rule="evenodd" clip-rule="evenodd" d="M108.344 158.92C108.794 159.624 110.158 160.151 111.526 164.112C111.956 165.358 113.142 170.215 115.386 168.056C116.921 166.578 115.266 163.552 113.892 162.01C112.877 160.871 110.358 159.447 108.343 158.92H108.344Z" fill="white" fill-opacity="0.501961"/>
</svg>
